$MeshFormat
4.1 0 8
$EndMeshFormat
$PhysicalNames
8
0 9 "PointsTop"
0 10 "PointsBottom"
1 11 "CurveTopFixed"
1 12 "CurveTopFree"
1 13 "CurveBottomFree"
1 14 "CurveBottomFixed"
2 15 "SurfaceTop"
2 16 "SurfaceBottom"
$EndPhysicalNames
$Entities
8 8 2 0
1 1.180783467746281 0.98 0 1 10 
2 0.307081339712919 0 0 1 10 
3 1.507081339712919 -1.694065894508601e-18 0 1 10 
4 1.507081339712919 0.98 0 1 10 
5 1.180783467746281 1.02 0 1 9 
6 1.507081339712919 1.02 0 1 9 
7 1.507081339712919 2 0 1 9 
8 0.307081339712919 2 0 1 9 
1 0.306481239612919 -0.0006001001000000006 -0.0006001001 1.181383567846281 0.9806001001 0.0006001001 1 13 2 1 -2 
2 0.3064812396129191 -0.0006001001000000018 -0.0006001001 1.507681439812919 0.0006001001 0.0006001001 1 14 2 2 -3 
3 1.506481239612919 -0.0006001001000000006 -0.0006001001 1.507681439812919 0.9806001001 0.0006001001 1 13 2 3 -4 
4 1.180183367646281 0.9793998999 -0.0006001001 1.507681439812919 0.9806001001 0.0006001001 1 13 2 4 -1 
5 1.180183367646281 1.0193998999 -0.0006001001 1.507681439812919 1.0206001001 0.0006001001 1 12 2 5 -6 
6 1.506481239612919 1.0193998999 -0.0006001001 1.507681439812919 2.0006001001 0.0006001001 1 12 2 6 -7 
7 0.3064812396129191 1.9993998999 -0.0006001001 1.507681439812919 2.0006001001 0.0006001001 1 11 2 7 -8 
8 0.306481239612919 1.0193998999 -0.0006001001 1.181383567846281 2.0006001001 0.0006001001 1 12 2 8 -5 
1 0.307081239712919 -1.000000000028756e-07 -1e-07 1.507081439712919 0.9800000999999999 1e-07 1 16 4 1 2 3 4 
2 0.307081239712919 1.0199999 -1e-07 1.507081439712919 2.0000001 1e-07 1 15 4 -8 -7 -6 -5 
$EndEntities
$Nodes
18 154 1 154
0 1 0 1
1
1.180783467746281 0.98 0
0 2 0 1
2
0.307081339712919 0 0
0 3 0 1
3
1.507081339712919 -1.694065894508601e-18 0
0 4 0 1
4
1.507081339712919 0.98 0
0 5 0 1
5
1.180783467746281 1.02 0
0 6 0 1
6
1.507081339712919 1.02 0
0 7 0 1
7
1.507081339712919 2 0
0 8 0 1
8
0.307081339712919 2 0
1 1 0 5
9
10
11
12
13
1.051233628500379 0.834688642287322 0
0.7682088796127104 0.5172300428282119 0
0.4609076548419316 0.17254140054089 0
0.921683789254477 0.6893772845746441 0
0.6147339699709441 0.34508280108178 0
1 2 0 9
14
15
16
17
18
19
20
21
22
0.4346085816811782 -1.800329593659782e-19 0
0.6849498559117118 -5.334451382507881e-19 0
0.9265786373197968 -8.745577030133804e-19 0
1.161657660993951 -1.206423833447351e-18 0
1.392501637617607 -1.532311256573081e-18 0
0.5621358236494374 -3.600659187319563e-19 0
0.8077638881739861 -7.068243577696199e-19 0
1.045393386465607 -1.042291048257141e-18 0
1.277921935522295 -1.370556618637562e-18 0
1 3 0 5
23
24
25
26
27
1.507081339712919 0.1788380177887877 0
1.507081339712919 0.5223300438488191 0
1.507081339712919 0.8334920260600314 0
1.507081339712919 0.3576760355775754 0
1.507081339712919 0.6869840521200627 0
1 4 0 9
28
29
30
31
32
33
34
35
36
1.432501251849532 0.98 0
1.367614605244305 0.98 0
1.311445430746648 0.98 0
1.252760855036613 0.98 0
1.469791295781226 0.98 0
1.400057928546919 0.98 0
1.339530017995477 0.98 0
1.282103142891631 0.98 0
1.216772161391447 0.98 0
1 5 0 9
37
38
39
40
41
42
43
44
45
1.216596854947134 1.02 0
1.281667392321845 1.02 0
1.338964329531428 1.02 0
1.399478582870218 1.02 0
1.469517194443101 1.02 0
1.252410242147987 1.02 0
1.310924542495703 1.02 0
1.367004116567153 1.02 0
1.431953049173283 1.02 0
1 6 0 5
46
47
48
49
50
1.507081339712919 1.314019022528348 0
1.507081339712919 1.643093189371888 0
1.507081339712919 1.167009511264174 0
1.507081339712919 1.478556105950118 0
1.507081339712919 1.821546594685944 0
1 7 0 9
51
52
53
54
55
56
57
58
59
1.277613245680177 2 0
1.045101929012668 2 0
0.8073762679888186 2 0
0.5617098280396086 2 0
1.392347292696548 2 0
1.161357587346422 2 0
0.9262390985007432 2 0
0.6845430480142136 2 0
0.4343955838762638 2 0
1 8 0 5
60
61
62
63
64
0.6148420236417342 1.654795999033297 0
0.9221599890706329 1.310088579356713 0
0.4609616816773267 1.827397999516649 0
0.7685010063561836 1.482442289195005 0
1.051471728408457 1.165044289678356 0
2 1 0 45
65
66
67
68
69
70
71
72
73
74
75
76
77
78
79
80
81
82
83
84
85
86
87
88
89
90
91
92
93
94
95
96
97
98
99
100
101
102
103
104
105
106
107
108
109
1.063469284257057 0.6788200815798029 0
1.187508557255308 0.6749628613603734 0
1.299648079473445 0.675274385971502 0
1.405125129445185 0.6790082792042957 0
0.8314442111869025 0.3441414429067157 0
1.022063349086602 0.343212967118056 0
1.194149995054977 0.3440965939706804 0
1.354220510239793 0.3482130398192725 0
0.9951220041905775 0.6830170394829324 0
1.161960432801069 0.8306567002925873 0
1.109268958593445 0.8321673927782183 0
1.127350916201558 0.676260162288195 0
1.255710091548212 0.829511732769331 0
1.210397276116216 0.8298375518975273 0
1.244703343210422 0.6746790439788402 0
1.340839936034726 0.829904836634321 0
1.298914558947645 0.8295572805029102 0
1.352963805594373 0.6767024398118962 0
1.42374250968029 0.8313454934480559 0
1.382334344209716 0.8305119819574944 0
1.456450455185894 0.682339004161908 0
1.465371250524915 0.8323666815392637 0
0.7267989978940763 0.3447177863455511 0
0.952137260935771 0.5141772657249852 0
0.8644053071165777 0.5159516036390059 0
0.9295311390119225 0.3435543217450288 0
1.109505867795972 0.5118138087371347 0
1.033377637803603 0.5126859410463717 0
1.109977013769294 0.3433348307361301 0
1.250499313375373 0.5123600195036531 0
1.181589059827858 0.5116918010305488 0
1.275340582771546 0.3456593626584864 0
1.381565418733764 0.5160472934476664 0
1.316960194648268 0.5138211543694613 0
1.431334672389756 0.3520479134799676 0
1.444799678193992 0.5189552531800532 0
0.7015661270674538 0.1723407547604736 0
0.5836931356783501 0.1724907831413618 0
0.9227260386949814 0.1720006504787985 0
0.8143638451691428 0.1721439382076028 0
1.127668354746751 0.1723850110102412 0
1.026890597638318 0.172037862044322 0
1.320948009542826 0.1744837046428529 0
1.225452952898521 0.1731662954806202 0
1.414605476649225 0.1763971779845631 0
2 2 0 45
110
111
112
113
114
115
116
117
118
119
120
121
122
123
124
125
126
127
128
129
130
131
132
133
134
135
136
137
138
139
140
141
142
143
144
145
146
147
148
149
150
151
152
153
154
0.8314366872218282 1.655740947508154 0
1.021956854096346 1.656782697717358 0
1.193987829792104 1.656083286568554 0
1.354086039736554 1.652214765401575 0
1.063545743229971 1.320973002658383 0
1.18736977365969 1.325097828333295 0
1.299432905879904 1.325042484504974 0
1.40495669561949 1.321602062299371 0
0.7268474931203116 1.655145607611744 0
0.7014159362842746 1.827600941100906 0
0.5836152622725322 1.827447817748189 0
0.9294711402226032 1.656374628632671 0
0.9225367980159318 1.827981811309649 0
0.8141900787653231 1.827811938050774 0
1.109834957745901 1.656744727370655 0
1.127468195286237 1.82768532945659 0
1.026693757894507 1.827982926902306 0
1.275179673023823 1.654636021258995 0
1.320788520451639 1.825721785075487 0
1.225258937652756 1.826966567234162 0
1.431253211137484 1.648534785235501 0
1.414514921158606 1.823892586324465 0
0.9953704415894775 1.316622782095117 0
0.9522143235438394 1.485632535745977 0
0.8645904267889279 1.483773704341893 0
1.127300531758078 1.323671097621265 0
1.109413207800252 1.488209014801239 0
1.033359863258895 1.487225185234669 0
1.244510427409383 1.325508259297459 0
1.250330057155926 1.487910373472706 0
1.181445198439907 1.488450837529669 0
1.352756613318432 1.323754094385651 0
1.381425919384848 1.484509664760294 0
1.316792318799255 1.486586514584829 0
1.456351025919213 1.318449399537075 0
1.444716133887334 1.481762792661176 0
1.161879222463068 1.169277346658371 0
1.109329632905995 1.167676295352839 0
1.25545077649204 1.170574333364417 0
1.210210142830654 1.170175428697774 0
1.340534181379219 1.170317001849821 0
1.298616410142649 1.170596851979205 0
1.423522996405423 1.169014499528531 0
1.38205500812315 1.169778252093925 0
1.465249921770243 1.168064318069848 0
$EndNodes
$Elements
18 192 1 192
0 1 15 1
1 1 
0 2 15 1
2 2 
0 3 15 1
3 3 
0 4 15 1
4 4 
0 5 15 1
5 5 
0 6 15 1
6 6 
0 7 15 1
7 7 
0 8 15 1
8 8 
1 1 1 6
9 1 9 
10 9 12 
11 12 10 
12 10 13 
13 13 11 
14 11 2 
1 2 1 10
15 2 14 
16 14 19 
17 19 15 
18 15 20 
19 20 16 
20 16 21 
21 21 17 
22 17 22 
23 22 18 
24 18 3 
1 3 1 6
25 3 23 
26 23 26 
27 26 24 
28 24 27 
29 27 25 
30 25 4 
1 4 1 10
31 4 32 
32 32 28 
33 28 33 
34 33 29 
35 29 34 
36 34 30 
37 30 35 
38 35 31 
39 31 36 
40 36 1 
1 5 1 10
41 5 37 
42 37 42 
43 42 38 
44 38 43 
45 43 39 
46 39 44 
47 44 40 
48 40 45 
49 45 41 
50 41 6 
1 6 1 6
51 6 48 
52 48 46 
53 46 49 
54 49 47 
55 47 50 
56 50 7 
1 7 1 10
57 7 55 
58 55 51 
59 51 56 
60 56 52 
61 52 57 
62 57 53 
63 53 58 
64 58 54 
65 54 59 
66 59 8 
1 8 1 6
67 8 62 
68 62 60 
69 60 63 
70 63 61 
71 61 64 
72 64 5 
2 1 3 60
73 1 9 75 36 
74 9 12 73 75 
75 75 73 65 74 
76 36 75 74 31 
77 31 74 78 35 
78 74 65 76 78 
79 78 76 66 77 
80 35 78 77 30 
81 30 77 81 34 
82 77 66 79 81 
83 81 79 67 80 
84 34 81 80 29 
85 29 80 84 33 
86 80 67 82 84 
87 84 82 68 83 
88 33 84 83 28 
89 28 83 86 32 
90 83 68 85 86 
91 86 85 27 25 
92 32 86 25 4 
93 12 10 89 73 
94 10 13 87 89 
95 89 87 69 88 
96 73 89 88 65 
97 65 88 92 76 
98 88 69 90 92 
99 92 90 70 91 
100 76 92 91 66 
101 66 91 95 79 
102 91 70 93 95 
103 95 93 71 94 
104 79 95 94 67 
105 67 94 98 82 
106 94 71 96 98 
107 98 96 72 97 
108 82 98 97 68 
109 68 97 100 85 
110 97 72 99 100 
111 100 99 26 24 
112 85 100 24 27 
113 13 11 102 87 
114 11 2 14 102 
115 102 14 19 101 
116 87 102 101 69 
117 69 101 104 90 
118 101 19 15 104 
119 104 15 20 103 
120 90 104 103 70 
121 70 103 106 93 
122 103 20 16 106 
123 106 16 21 105 
124 93 106 105 71 
125 71 105 108 96 
126 105 21 17 108 
127 108 17 22 107 
128 96 108 107 72 
129 72 107 109 99 
130 107 22 18 109 
131 109 18 3 23 
132 99 109 23 26 
2 2 3 60
133 8 62 120 59 
134 62 60 118 120 
135 120 118 110 119 
136 59 120 119 54 
137 54 119 123 58 
138 119 110 121 123 
139 123 121 111 122 
140 58 123 122 53 
141 53 122 126 57 
142 122 111 124 126 
143 126 124 112 125 
144 57 126 125 52 
145 52 125 129 56 
146 125 112 127 129 
147 129 127 113 128 
148 56 129 128 51 
149 51 128 131 55 
150 128 113 130 131 
151 131 130 47 50 
152 55 131 50 7 
153 60 63 134 118 
154 63 61 132 134 
155 134 132 114 133 
156 118 134 133 110 
157 110 133 137 121 
158 133 114 135 137 
159 137 135 115 136 
160 121 137 136 111 
161 111 136 140 124 
162 136 115 138 140 
163 140 138 116 139 
164 124 140 139 112 
165 112 139 143 127 
166 139 116 141 143 
167 143 141 117 142 
168 127 143 142 113 
169 113 142 145 130 
170 142 117 144 145 
171 145 144 46 49 
172 130 145 49 47 
173 61 64 147 132 
174 64 5 37 147 
175 147 37 42 146 
176 132 147 146 114 
177 114 146 149 135 
178 146 42 38 149 
179 149 38 43 148 
180 135 149 148 115 
181 115 148 151 138 
182 148 43 39 151 
183 151 39 44 150 
184 138 151 150 116 
185 116 150 153 141 
186 150 44 40 153 
187 153 40 45 152 
188 141 153 152 117 
189 117 152 154 144 
190 152 45 41 154 
191 154 41 6 48 
192 144 154 48 46 
$EndElements
