$NOD
1897
1  0 0 0
2  0.05 0 0
3  0.1 0 0
4  0.15 0 0
5  0.2 0 0
6  0.25 0 0
7  0.3 0 0
8  0.35 0 0
9  0.4 0 0
10  0.45 0 0
11  0.5 0 0
12  0.55 0 0
13  0.6 0 0
14  0.65 0 0
15  0.7 0 0
16  0.75 0 0
17  0.8 0 0
18  0.85 0 0
19  0.9 0 0
20  0.95 0 0
21  1 0 0
22  1.05 0 0
23  1.1 0 0
24  1.15 0 0
25  1.2 0 0
26  1.25 0 0
27  1.3 0 0
28  1.35 0 0
29  1.4 0 0
30  1.45 0 0
31  1.5 0 0
32  1.55 0 0
33  1.6 0 0
34  1.65 0 0
35  1.7 0 0
36  1.75 0 0
37  1.8 0 0
38  1.85 0 0
39  1.9 0 0
40  1.95 0 0
41  2 0 0
42  2.05 0 0
43  2.1 0 0
44  2.15 0 0
45  2.2 0 0
46  2.25 0 0
47  2.3 0 0
48  2.35 0 0
49  2.4 0 0
50  2.45 0 0
51  2.5 0 0
52  2.55 0 0
53  2.6 0 0
54  2.65 0 0
55  2.7 0 0
56  2.75 0 0
57  2.8 0 0
58  2.85 0 0
59  2.9 0 0
60  2.95 0 0
61  3 0 0
62  3.05 0 0
63  3.1 0 0
64  3.15 0 0
65  3.2 0 0
66  3.25 0 0
67  3.3 0 0
68  3.35 0 0
69  3.4 0 0
70  3.45 0 0
71  3.5 0 0
72  3.55 0 0
73  3.6 0 0
74  3.65 0 0
75  3.7 0 0
76  3.75 0 0
77  3.8 0 0
78  3.85 0 0
79  3.9 0 0
80  3.95 0 0
81  4 0 0
82  0 0.05 0
83  0.05 0.05 0
84  0.1 0.05 0
85  0.15 0.05 0
86  0.2 0.05 0
87  0.25 0.05 0
88  0.3 0.05 0
89  0.35 0.05 0
90  0.4 0.05 0
91  0.45 0.05 0
92  0.5 0.05 0
93  0.55 0.05 0
94  0.6 0.05 0
95  0.65 0.05 0
96  0.7 0.05 0
97  0.75 0.05 0
98  0.8 0.05 0
99  0.85 0.05 0
100  0.9 0.05 0
101  0.95 0.05 0
102  1 0.05 0
103  1.05 0.05 0
104  1.1 0.05 0
105  1.15 0.05 0
106  1.2 0.05 0
107  1.25 0.05 0
108  1.3 0.05 0
109  1.35 0.05 0
110  1.4 0.05 0
111  1.45 0.05 0
112  1.5 0.05 0
113  1.55 0.05 0
114  1.6 0.05 0
115  1.65 0.05 0
116  1.7 0.05 0
117  1.75 0.05 0
118  1.8 0.05 0
119  1.85 0.05 0
120  1.9 0.05 0
121  1.95 0.05 0
122  2 0.05 0
123  2.05 0.05 0
124  2.1 0.05 0
125  2.15 0.05 0
126  2.2 0.05 0
127  2.25 0.05 0
128  2.3 0.05 0
129  2.35 0.05 0
130  2.4 0.05 0
131  2.45 0.05 0
132  2.5 0.05 0
133  2.55 0.05 0
134  2.6 0.05 0
135  2.65 0.05 0
136  2.7 0.05 0
137  2.75 0.05 0
138  2.8 0.05 0
139  2.85 0.05 0
140  2.9 0.05 0
141  2.95 0.05 0
142  3 0.05 0
143  3.05 0.05 0
144  3.1 0.05 0
145  3.15 0.05 0
146  3.2 0.05 0
147  3.25 0.05 0
148  3.3 0.05 0
149  3.35 0.05 0
150  3.4 0.05 0
151  3.45 0.05 0
152  3.5 0.05 0
153  3.55 0.05 0
154  3.6 0.05 0
155  3.65 0.05 0
156  3.7 0.05 0
157  3.75 0.05 0
158  3.8 0.05 0
159  3.85 0.05 0
160  3.9 0.05 0
161  3.95 0.05 0
162  4 0.05 0
163  0 0.1 0
164  0.05 0.1 0
165  0.1 0.1 0
166  0.15 0.1 0
167  0.2 0.1 0
168  0.25 0.1 0
169  0.3 0.1 0
170  0.35 0.1 0
171  0.4 0.1 0
172  0.45 0.1 0
173  0.5 0.1 0
174  0.55 0.1 0
175  0.6 0.1 0
176  0.65 0.1 0
177  0.7 0.1 0
178  0.75 0.1 0
179  0.8 0.1 0
180  0.85 0.1 0
181  0.9 0.1 0
182  0.95 0.1 0
183  1 0.1 0
184  1.05 0.1 0
185  1.1 0.1 0
186  1.15 0.1 0
187  1.2 0.1 0
188  1.25 0.1 0
189  1.3 0.1 0
190  1.35 0.1 0
191  1.4 0.1 0
192  1.45 0.1 0
193  1.5 0.1 0
194  1.55 0.1 0
195  1.6 0.1 0
196  1.65 0.1 0
197  1.7 0.1 0
198  1.75 0.1 0
199  1.8 0.1 0
200  1.85 0.1 0
201  1.9 0.1 0
202  1.95 0.1 0
203  2 0.1 0
204  2.05 0.1 0
205  2.1 0.1 0
206  2.15 0.1 0
207  2.2 0.1 0
208  2.25 0.1 0
209  2.3 0.1 0
210  2.35 0.1 0
211  2.4 0.1 0
212  2.45 0.1 0
213  2.5 0.1 0
214  2.55 0.1 0
215  2.6 0.1 0
216  2.65 0.1 0
217  2.7 0.1 0
218  2.75 0.1 0
219  2.8 0.1 0
220  2.85 0.1 0
221  2.9 0.1 0
222  2.95 0.1 0
223  3 0.1 0
224  3.05 0.1 0
225  3.1 0.1 0
226  3.15 0.1 0
227  3.2 0.1 0
228  3.25 0.1 0
229  3.3 0.1 0
230  3.35 0.1 0
231  3.4 0.1 0
232  3.45 0.1 0
233  3.5 0.1 0
234  3.55 0.1 0
235  3.6 0.1 0
236  3.65 0.1 0
237  3.7 0.1 0
238  3.75 0.1 0
239  3.8 0.1 0
240  3.85 0.1 0
241  3.9 0.1 0
242  3.95 0.1 0
243  4 0.1 0
244  0 0.15 0
245  0.05 0.15 0
246  0.1 0.15 0
247  0.15 0.15 0
248  0.2 0.15 0
249  0.25 0.15 0
250  0.3 0.15 0
251  0.35 0.15 0
252  0.4 0.15 0
253  0.45 0.15 0
254  0.5 0.15 0
255  0.55 0.15 0
256  0.6 0.15 0
257  0.65 0.15 0
258  0.7 0.15 0
259  0.75 0.15 0
260  0.8 0.15 0
261  0.85 0.15 0
262  0.9 0.15 0
263  0.95 0.15 0
264  1 0.15 0
265  1.05 0.15 0
266  1.1 0.15 0
267  1.15 0.15 0
268  1.2 0.15 0
269  1.25 0.15 0
270  1.3 0.15 0
271  1.35 0.15 0
272  1.4 0.15 0
273  1.45 0.15 0
274  1.5 0.15 0
275  1.55 0.15 0
276  1.6 0.15 0
277  1.65 0.15 0
278  1.7 0.15 0
279  1.75 0.15 0
280  1.8 0.15 0
281  1.85 0.15 0
282  1.9 0.15 0
283  1.95 0.15 0
284  2 0.15 0
285  2.05 0.15 0
286  2.1 0.15 0
287  2.15 0.15 0
288  2.2 0.15 0
289  2.25 0.15 0
290  2.3 0.15 0
291  2.35 0.15 0
292  2.4 0.15 0
293  2.45 0.15 0
294  2.5 0.15 0
295  2.55 0.15 0
296  2.6 0.15 0
297  2.65 0.15 0
298  2.7 0.15 0
299  2.75 0.15 0
300  2.8 0.15 0
301  2.85 0.15 0
302  2.9 0.15 0
303  2.95 0.15 0
304  3 0.15 0
305  3.05 0.15 0
306  3.1 0.15 0
307  3.15 0.15 0
308  3.2 0.15 0
309  3.25 0.15 0
310  3.3 0.15 0
311  3.35 0.15 0
312  3.4 0.15 0
313  3.45 0.15 0
314  3.5 0.15 0
315  3.55 0.15 0
316  3.6 0.15 0
317  3.65 0.15 0
318  3.7 0.15 0
319  3.75 0.15 0
320  3.8 0.15 0
321  3.85 0.15 0
322  3.9 0.15 0
323  3.95 0.15 0
324  4 0.15 0
325  0 0.2 0
326  0.05 0.2 0
327  0.1 0.2 0
328  0.15 0.2 0
329  0.2 0.2 0
330  0.25 0.2 0
331  0.3 0.2 0
332  0.35 0.2 0
333  0.4 0.2 0
334  0.45 0.2 0
335  0.5 0.2 0
336  0.55 0.2 0
337  0.6 0.2 0
338  0.65 0.2 0
339  0.7 0.2 0
340  0.75 0.2 0
341  0.8 0.2 0
342  0.85 0.2 0
343  0.9 0.2 0
344  0.95 0.2 0
345  1 0.2 0
346  1.05 0.2 0
347  1.1 0.2 0
348  1.15 0.2 0
349  1.2 0.2 0
350  1.25 0.2 0
351  1.3 0.2 0
352  1.35 0.2 0
353  1.4 0.2 0
354  1.45 0.2 0
355  1.5 0.2 0
356  1.55 0.2 0
357  1.6 0.2 0
358  1.65 0.2 0
359  1.7 0.2 0
360  1.75 0.2 0
361  1.8 0.2 0
362  1.85 0.2 0
363  1.9 0.2 0
364  1.95 0.2 0
365  2 0.2 0
366  2.05 0.2 0
367  2.1 0.2 0
368  2.15 0.2 0
369  2.2 0.2 0
370  2.25 0.2 0
371  2.3 0.2 0
372  2.35 0.2 0
373  2.4 0.2 0
374  2.45 0.2 0
375  2.5 0.2 0
376  2.55 0.2 0
377  2.6 0.2 0
378  2.65 0.2 0
379  2.7 0.2 0
380  2.75 0.2 0
381  2.8 0.2 0
382  2.85 0.2 0
383  2.9 0.2 0
384  2.95 0.2 0
385  3 0.2 0
386  3.05 0.2 0
387  3.1 0.2 0
388  3.15 0.2 0
389  3.2 0.2 0
390  3.25 0.2 0
391  3.3 0.2 0
392  3.35 0.2 0
393  3.4 0.2 0
394  3.45 0.2 0
395  3.5 0.2 0
396  3.55 0.2 0
397  3.6 0.2 0
398  3.65 0.2 0
399  3.7 0.2 0
400  3.75 0.2 0
401  3.8 0.2 0
402  3.85 0.2 0
403  3.9 0.2 0
404  3.95 0.2 0
405  4 0.2 0
406  0 0.25 0
407  0.05 0.25 0
408  0.1 0.25 0
409  0.15 0.25 0
410  0.2 0.25 0
411  0.25 0.25 0
412  0.3 0.25 0
413  0.35 0.25 0
414  0.4 0.25 0
415  0.45 0.25 0
416  0.5 0.25 0
417  0.55 0.25 0
418  0.6 0.25 0
419  0.65 0.25 0
420  0.7 0.25 0
421  0.75 0.25 0
422  0.8 0.25 0
423  0.85 0.25 0
424  0.9 0.25 0
425  0.95 0.25 0
426  1 0.25 0
427  1.05 0.25 0
428  1.1 0.25 0
429  1.15 0.25 0
430  1.2 0.25 0
431  1.25 0.25 0
432  1.3 0.25 0
433  1.35 0.25 0
434  1.4 0.25 0
435  1.45 0.25 0
436  1.5 0.25 0
437  1.55 0.25 0
438  1.6 0.25 0
439  1.65 0.25 0
440  1.7 0.25 0
441  1.75 0.25 0
442  1.8 0.25 0
443  1.85 0.25 0
444  1.9 0.25 0
445  1.95 0.25 0
446  2 0.25 0
447  2.05 0.25 0
448  2.1 0.25 0
449  2.15 0.25 0
450  2.2 0.25 0
451  2.25 0.25 0
452  2.3 0.25 0
453  2.35 0.25 0
454  2.4 0.25 0
455  2.45 0.25 0
456  2.5 0.25 0
457  2.55 0.25 0
458  2.6 0.25 0
459  2.65 0.25 0
460  2.7 0.25 0
461  2.75 0.25 0
462  2.8 0.25 0
463  2.85 0.25 0
464  2.9 0.25 0
465  2.95 0.25 0
466  3 0.25 0
467  3.05 0.25 0
468  3.1 0.25 0
469  3.15 0.25 0
470  3.2 0.25 0
471  3.25 0.25 0
472  3.3 0.25 0
473  3.35 0.25 0
474  3.4 0.25 0
475  3.45 0.25 0
476  3.5 0.25 0
477  3.55 0.25 0
478  3.6 0.25 0
479  3.65 0.25 0
480  3.7 0.25 0
481  3.75 0.25 0
482  3.8 0.25 0
483  3.85 0.25 0
484  3.9 0.25 0
485  3.95 0.25 0
486  4 0.25 0
487  0 0.3 0
488  0.05 0.3 0
489  0.1 0.3 0
490  0.15 0.3 0
491  0.2 0.3 0
492  0.25 0.3 0
493  0.3 0.3 0
494  0.35 0.3 0
495  0.4 0.3 0
496  0.45 0.3 0
497  0.5 0.3 0
498  0.55 0.3 0
499  0.6 0.3 0
500  0.65 0.3 0
501  0.7 0.3 0
502  0.75 0.3 0
503  0.8 0.3 0
504  0.85 0.3 0
505  0.9 0.3 0
506  0.95 0.3 0
507  1 0.3 0
508  1.05 0.3 0
509  1.1 0.3 0
510  1.15 0.3 0
511  1.2 0.3 0
512  1.25 0.3 0
513  1.3 0.3 0
514  1.35 0.3 0
515  1.4 0.3 0
516  1.45 0.3 0
517  1.5 0.3 0
518  1.55 0.3 0
519  1.6 0.3 0
520  1.65 0.3 0
521  1.7 0.3 0
522  1.75 0.3 0
523  1.8 0.3 0
524  1.85 0.3 0
525  1.9 0.3 0
526  1.95 0.3 0
527  2 0.3 0
528  2.05 0.3 0
529  2.1 0.3 0
530  2.15 0.3 0
531  2.2 0.3 0
532  2.25 0.3 0
533  2.3 0.3 0
534  2.35 0.3 0
535  2.4 0.3 0
536  2.45 0.3 0
537  2.5 0.3 0
538  2.55 0.3 0
539  2.6 0.3 0
540  2.65 0.3 0
541  2.7 0.3 0
542  2.75 0.3 0
543  2.8 0.3 0
544  2.85 0.3 0
545  2.9 0.3 0
546  2.95 0.3 0
547  3 0.3 0
548  3.05 0.3 0
549  3.1 0.3 0
550  3.15 0.3 0
551  3.2 0.3 0
552  3.25 0.3 0
553  3.3 0.3 0
554  3.35 0.3 0
555  3.4 0.3 0
556  3.45 0.3 0
557  3.5 0.3 0
558  3.55 0.3 0
559  3.6 0.3 0
560  3.65 0.3 0
561  3.7 0.3 0
562  3.75 0.3 0
563  3.8 0.3 0
564  3.85 0.3 0
565  3.9 0.3 0
566  3.95 0.3 0
567  4 0.3 0
568  0 0.35 0
569  0.05 0.35 0
570  0.1 0.35 0
571  0.15 0.35 0
572  0.2 0.35 0
573  0.25 0.35 0
574  0.3 0.35 0
575  0.35 0.35 0
576  0.4 0.35 0
577  0.45 0.35 0
578  0.5 0.35 0
579  0.55 0.35 0
580  0.6 0.35 0
581  0.65 0.35 0
582  0.7 0.35 0
583  0.75 0.35 0
584  0.8 0.35 0
585  0.85 0.35 0
586  0.9 0.35 0
587  0.95 0.35 0
588  1 0.35 0
589  1.05 0.35 0
590  1.1 0.35 0
591  1.15 0.35 0
592  1.2 0.35 0
593  1.25 0.35 0
594  1.3 0.35 0
595  1.35 0.35 0
596  1.4 0.35 0
597  1.45 0.35 0
598  1.5 0.35 0
599  1.55 0.35 0
600  1.6 0.35 0
601  1.65 0.35 0
602  1.7 0.35 0
603  1.75 0.35 0
604  1.8 0.35 0
605  1.85 0.35 0
606  1.9 0.35 0
607  1.95 0.35 0
608  2 0.35 0
609  2.05 0.35 0
610  2.1 0.35 0
611  2.15 0.35 0
612  2.2 0.35 0
613  2.25 0.35 0
614  2.3 0.35 0
615  2.35 0.35 0
616  2.4 0.35 0
617  2.45 0.35 0
618  2.5 0.35 0
619  2.55 0.35 0
620  2.6 0.35 0
621  2.65 0.35 0
622  2.7 0.35 0
623  2.75 0.35 0
624  2.8 0.35 0
625  2.85 0.35 0
626  2.9 0.35 0
627  2.95 0.35 0
628  3 0.35 0
629  3.05 0.35 0
630  3.1 0.35 0
631  3.15 0.35 0
632  3.2 0.35 0
633  3.25 0.35 0
634  3.3 0.35 0
635  3.35 0.35 0
636  3.4 0.35 0
637  3.45 0.35 0
638  3.5 0.35 0
639  3.55 0.35 0
640  3.6 0.35 0
641  3.65 0.35 0
642  3.7 0.35 0
643  3.75 0.35 0
644  3.8 0.35 0
645  3.85 0.35 0
646  3.9 0.35 0
647  3.95 0.35 0
648  4 0.35 0
649  0 0.4 0
650  0.05 0.4 0
651  0.1 0.4 0
652  0.15 0.4 0
653  0.2 0.4 0
654  0.25 0.4 0
655  0.3 0.4 0
656  0.35 0.4 0
657  0.4 0.4 0
658  0.45 0.4 0
659  0.5 0.4 0
660  0.55 0.4 0
661  0.6 0.4 0
662  0.65 0.4 0
663  0.7 0.4 0
664  0.75 0.4 0
665  0.8 0.4 0
666  0.85 0.4 0
667  0.9 0.4 0
668  0.95 0.4 0
669  1 0.4 0
670  1.05 0.4 0
671  1.1 0.4 0
672  1.15 0.4 0
673  1.2 0.4 0
674  1.25 0.4 0
675  1.3 0.4 0
676  1.35 0.4 0
677  1.4 0.4 0
678  1.45 0.4 0
679  1.5 0.4 0
680  1.55 0.4 0
681  1.6 0.4 0
682  1.65 0.4 0
683  1.7 0.4 0
684  1.75 0.4 0
685  1.8 0.4 0
686  1.85 0.4 0
687  1.9 0.4 0
688  1.95 0.4 0
689  2 0.4 0
690  2.05 0.4 0
691  2.1 0.4 0
692  2.15 0.4 0
693  2.2 0.4 0
694  2.25 0.4 0
695  2.3 0.4 0
696  2.35 0.4 0
697  2.4 0.4 0
698  2.45 0.4 0
699  2.5 0.4 0
700  2.55 0.4 0
701  2.6 0.4 0
702  2.65 0.4 0
703  2.7 0.4 0
704  2.75 0.4 0
705  2.8 0.4 0
706  2.85 0.4 0
707  2.9 0.4 0
708  2.95 0.4 0
709  3 0.4 0
710  3.05 0.4 0
711  3.1 0.4 0
712  3.15 0.4 0
713  3.2 0.4 0
714  3.25 0.4 0
715  3.3 0.4 0
716  3.35 0.4 0
717  3.4 0.4 0
718  3.45 0.4 0
719  3.5 0.4 0
720  3.55 0.4 0
721  3.6 0.4 0
722  3.65 0.4 0
723  3.7 0.4 0
724  3.75 0.4 0
725  3.8 0.4 0
726  3.85 0.4 0
727  3.9 0.4 0
728  3.95 0.4 0
729  4 0.4 0
730  0 0.45 0
731  0.05 0.45 0
732  0.1 0.45 0
733  0.15 0.45 0
734  0.2 0.45 0
735  0.25 0.45 0
736  0.3 0.45 0
737  0.35 0.45 0
738  0.4 0.45 0
739  0.45 0.45 0
740  0.5 0.45 0
741  0.55 0.45 0
742  0.6 0.45 0
743  0.65 0.45 0
744  0.7 0.45 0
745  0.75 0.45 0
746  0.8 0.45 0
747  0.85 0.45 0
748  0.9 0.45 0
749  0.95 0.45 0
750  1 0.45 0
751  1.05 0.45 0
752  1.1 0.45 0
753  1.15 0.45 0
754  1.2 0.45 0
755  1.25 0.45 0
756  1.3 0.45 0
757  1.35 0.45 0
758  1.4 0.45 0
759  1.45 0.45 0
760  1.5 0.45 0
761  1.55 0.45 0
762  1.6 0.45 0
763  1.65 0.45 0
764  1.7 0.45 0
765  1.75 0.45 0
766  1.8 0.45 0
767  1.85 0.45 0
768  1.9 0.45 0
769  1.95 0.45 0
770  2 0.45 0
771  2.05 0.45 0
772  2.1 0.45 0
773  2.15 0.45 0
774  2.2 0.45 0
775  2.25 0.45 0
776  2.3 0.45 0
777  2.35 0.45 0
778  2.4 0.45 0
779  2.45 0.45 0
780  2.5 0.45 0
781  2.55 0.45 0
782  2.6 0.45 0
783  2.65 0.45 0
784  2.7 0.45 0
785  2.75 0.45 0
786  2.8 0.45 0
787  2.85 0.45 0
788  2.9 0.45 0
789  2.95 0.45 0
790  3 0.45 0
791  3.05 0.45 0
792  3.1 0.45 0
793  3.15 0.45 0
794  3.2 0.45 0
795  3.25 0.45 0
796  3.3 0.45 0
797  3.35 0.45 0
798  3.4 0.45 0
799  3.45 0.45 0
800  3.5 0.45 0
801  3.55 0.45 0
802  3.6 0.45 0
803  3.65 0.45 0
804  3.7 0.45 0
805  3.75 0.45 0
806  3.8 0.45 0
807  3.85 0.45 0
808  3.9 0.45 0
809  3.95 0.45 0
810  4 0.45 0
811  0 0.5 0
812  0.05 0.5 0
813  0.1 0.5 0
814  0.15 0.5 0
815  0.2 0.5 0
816  0.25 0.5 0
817  0.3 0.5 0
818  0.35 0.5 0
819  0.4 0.5 0
820  0.45 0.5 0
821  0.5 0.5 0
822  0.55 0.5 0
823  0.6 0.5 0
824  0.65 0.5 0
825  0.7 0.5 0
826  0.75 0.5 0
827  0.8 0.5 0
828  0.85 0.5 0
829  0.9 0.5 0
830  0.95 0.5 0
831  1 0.5 0
832  1.05 0.5 0
833  1.1 0.5 0
834  1.15 0.5 0
835  1.2 0.5 0
836  1.25 0.5 0
837  1.3 0.5 0
838  1.35 0.5 0
839  1.4 0.5 0
840  1.45 0.5 0
841  1.5 0.5 0
842  1.55 0.5 0
843  1.6 0.5 0
844  1.65 0.5 0
845  1.7 0.5 0
846  1.75 0.5 0
847  1.8 0.5 0
848  1.85 0.5 0
849  1.9 0.5 0
850  1.95 0.5 0
851  2 0.5 0
852  2.05 0.5 0
853  2.1 0.5 0
854  2.15 0.5 0
855  2.2 0.5 0
856  2.25 0.5 0
857  2.3 0.5 0
858  2.35 0.5 0
859  2.4 0.5 0
860  2.45 0.5 0
861  2.5 0.5 0
862  2.55 0.5 0
863  2.6 0.5 0
864  2.65 0.5 0
865  2.7 0.5 0
866  2.75 0.5 0
867  2.8 0.5 0
868  2.85 0.5 0
869  2.9 0.5 0
870  2.95 0.5 0
871  3 0.5 0
872  3.05 0.5 0
873  3.1 0.5 0
874  3.15 0.5 0
875  3.2 0.5 0
876  3.25 0.5 0
877  3.3 0.5 0
878  3.35 0.5 0
879  3.4 0.5 0
880  3.45 0.5 0
881  3.5 0.5 0
882  3.55 0.5 0
883  3.6 0.5 0
884  3.65 0.5 0
885  3.7 0.5 0
886  3.75 0.5 0
887  3.8 0.5 0
888  3.85 0.5 0
889  3.9 0.5 0
890  3.95 0.5 0
891  4 0.5 0
892  0 0.55 0
893  0.05 0.55 0
894  0.1 0.55 0
895  0.15 0.55 0
896  0.2 0.55 0
897  0.25 0.55 0
898  0.3 0.55 0
899  0.35 0.55 0
900  0.4 0.55 0
901  0.45 0.55 0
902  0.5 0.55 0
903  0.55 0.55 0
904  0.6 0.55 0
905  0.65 0.55 0
906  0.7 0.55 0
907  0.75 0.55 0
908  0.8 0.55 0
909  0.85 0.55 0
910  0.9 0.55 0
911  0.95 0.55 0
912  1 0.55 0
913  1.05 0.55 0
914  1.1 0.55 0
915  1.15 0.55 0
916  1.2 0.55 0
917  1.25 0.55 0
918  1.3 0.55 0
919  1.35 0.55 0
920  1.4 0.55 0
921  1.45 0.55 0
922  1.5 0.55 0
923  1.55 0.55 0
924  1.6 0.55 0
925  1.65 0.55 0
926  1.7 0.55 0
927  1.75 0.55 0
928  1.8 0.55 0
929  1.85 0.55 0
930  1.9 0.55 0
931  1.95 0.55 0
932  2 0.55 0
933  2.05 0.55 0
934  2.1 0.55 0
935  2.15 0.55 0
936  2.2 0.55 0
937  2.25 0.55 0
938  2.3 0.55 0
939  2.35 0.55 0
940  2.4 0.55 0
941  2.45 0.55 0
942  2.5 0.55 0
943  2.55 0.55 0
944  2.6 0.55 0
945  2.65 0.55 0
946  2.7 0.55 0
947  2.75 0.55 0
948  2.8 0.55 0
949  2.85 0.55 0
950  2.9 0.55 0
951  2.95 0.55 0
952  3 0.55 0
953  3.05 0.55 0
954  3.1 0.55 0
955  3.15 0.55 0
956  3.2 0.55 0
957  3.25 0.55 0
958  3.3 0.55 0
959  3.35 0.55 0
960  3.4 0.55 0
961  3.45 0.55 0
962  3.5 0.55 0
963  3.55 0.55 0
964  3.6 0.55 0
965  3.65 0.55 0
966  3.7 0.55 0
967  3.75 0.55 0
968  3.8 0.55 0
969  3.85 0.55 0
970  3.9 0.55 0
971  3.95 0.55 0
972  4 0.55 0
973  0 0.6 0
974  0.05 0.6 0
975  0.1 0.6 0
976  0.15 0.6 0
977  0.2 0.6 0
978  0.25 0.6 0
979  0.3 0.6 0
980  0.35 0.6 0
981  0.4 0.6 0
982  0.45 0.6 0
983  0.5 0.6 0
984  0.55 0.6 0
985  0.6 0.6 0
986  0.65 0.6 0
987  0.7 0.6 0
988  0.75 0.6 0
989  0.8 0.6 0
990  0.85 0.6 0
991  0.9 0.6 0
992  0.95 0.6 0
993  1 0.6 0
994  1.05 0.6 0
995  1.1 0.6 0
996  1.15 0.6 0
997  1.2 0.6 0
998  1.25 0.6 0
999  1.3 0.6 0
1000  1.35 0.6 0
1001  1.4 0.6 0
1002  1.45 0.6 0
1003  1.5 0.6 0
1004  1.55 0.6 0
1005  1.6 0.6 0
1006  1.65 0.6 0
1007  1.7 0.6 0
1008  1.75 0.6 0
1009  1.8 0.6 0
1010  1.85 0.6 0
1011  1.9 0.6 0
1012  1.95 0.6 0
1013  2 0.6 0
1014  2.05 0.6 0
1015  2.1 0.6 0
1016  2.15 0.6 0
1017  2.2 0.6 0
1018  2.25 0.6 0
1019  2.3 0.6 0
1020  2.35 0.6 0
1021  2.4 0.6 0
1022  2.45 0.6 0
1023  2.5 0.6 0
1024  2.55 0.6 0
1025  2.6 0.6 0
1026  2.65 0.6 0
1027  2.7 0.6 0
1028  2.75 0.6 0
1029  2.8 0.6 0
1030  2.85 0.6 0
1031  2.9 0.6 0
1032  2.95 0.6 0
1033  3 0.6 0
1034  3.05 0.6 0
1035  3.1 0.6 0
1036  3.15 0.6 0
1037  3.2 0.6 0
1038  3.25 0.6 0
1039  3.3 0.6 0
1040  3.35 0.6 0
1041  3.4 0.6 0
1042  3.45 0.6 0
1043  3.5 0.6 0
1044  3.55 0.6 0
1045  3.6 0.6 0
1046  3.65 0.6 0
1047  3.7 0.6 0
1048  3.75 0.6 0
1049  3.8 0.6 0
1050  3.85 0.6 0
1051  3.9 0.6 0
1052  3.95 0.6 0
1053  4 0.6 0
1054  0 0.65 0
1055  0.05 0.65 0
1056  0.1 0.65 0
1057  0.15 0.65 0
1058  0.2 0.65 0
1059  0.25 0.65 0
1060  0.3 0.65 0
1061  0.35 0.65 0
1062  0.4 0.65 0
1063  0.45 0.65 0
1064  0.5 0.65 0
1065  0.55 0.65 0
1066  0.6 0.65 0
1067  0.65 0.65 0
1068  0.7 0.65 0
1069  0.75 0.65 0
1070  0.8 0.65 0
1071  0.85 0.65 0
1072  0.9 0.65 0
1073  0.95 0.65 0
1074  1 0.65 0
1075  1.05 0.65 0
1076  1.1 0.65 0
1077  1.15 0.65 0
1078  1.2 0.65 0
1079  1.25 0.65 0
1080  1.3 0.65 0
1081  1.35 0.65 0
1082  1.4 0.65 0
1083  1.45 0.65 0
1084  1.5 0.65 0
1085  1.55 0.65 0
1086  1.6 0.65 0
1087  1.65 0.65 0
1088  1.7 0.65 0
1089  1.75 0.65 0
1090  1.8 0.65 0
1091  1.85 0.65 0
1092  1.9 0.65 0
1093  1.95 0.65 0
1094  2 0.65 0
1095  2.05 0.65 0
1096  2.1 0.65 0
1097  2.15 0.65 0
1098  2.2 0.65 0
1099  2.25 0.65 0
1100  2.3 0.65 0
1101  2.35 0.65 0
1102  2.4 0.65 0
1103  2.45 0.65 0
1104  2.5 0.65 0
1105  2.55 0.65 0
1106  2.6 0.65 0
1107  2.65 0.65 0
1108  2.7 0.65 0
1109  2.75 0.65 0
1110  2.8 0.65 0
1111  2.85 0.65 0
1112  2.9 0.65 0
1113  2.95 0.65 0
1114  3 0.65 0
1115  3.05 0.65 0
1116  3.1 0.65 0
1117  3.15 0.65 0
1118  3.2 0.65 0
1119  3.25 0.65 0
1120  3.3 0.65 0
1121  3.35 0.65 0
1122  3.4 0.65 0
1123  3.45 0.65 0
1124  3.5 0.65 0
1125  3.55 0.65 0
1126  3.6 0.65 0
1127  3.65 0.65 0
1128  3.7 0.65 0
1129  3.75 0.65 0
1130  3.8 0.65 0
1131  3.85 0.65 0
1132  3.9 0.65 0
1133  3.95 0.65 0
1134  4 0.65 0
1135  0 0.7 0
1136  0.05 0.7 0
1137  0.1 0.7 0
1138  0.15 0.7 0
1139  0.2 0.7 0
1140  0.25 0.7 0
1141  0.3 0.7 0
1142  0.35 0.7 0
1143  0.4 0.7 0
1144  0.45 0.7 0
1145  0.5 0.7 0
1146  0.55 0.7 0
1147  0.6 0.7 0
1148  0.65 0.7 0
1149  0.7 0.7 0
1150  0.75 0.7 0
1151  0.8 0.7 0
1152  0.85 0.7 0
1153  0.9 0.7 0
1154  0.95 0.7 0
1155  1 0.7 0
1156  1.05 0.7 0
1157  1.1 0.7 0
1158  1.15 0.7 0
1159  1.2 0.7 0
1160  1.25 0.7 0
1161  1.3 0.7 0
1162  1.35 0.7 0
1163  1.4 0.7 0
1164  1.45 0.7 0
1165  1.5 0.7 0
1166  1.55 0.7 0
1167  1.6 0.7 0
1168  1.65 0.7 0
1169  1.7 0.7 0
1170  1.75 0.7 0
1171  1.8 0.7 0
1172  1.85 0.7 0
1173  1.9 0.7 0
1174  1.95 0.7 0
1175  2 0.7 0
1176  2.05 0.7 0
1177  2.1 0.7 0
1178  2.15 0.7 0
1179  2.2 0.7 0
1180  2.25 0.7 0
1181  2.3 0.7 0
1182  2.35 0.7 0
1183  2.4 0.7 0
1184  2.45 0.7 0
1185  2.5 0.7 0
1186  2.55 0.7 0
1187  2.6 0.7 0
1188  2.65 0.7 0
1189  2.7 0.7 0
1190  2.75 0.7 0
1191  2.8 0.7 0
1192  2.85 0.7 0
1193  2.9 0.7 0
1194  2.95 0.7 0
1195  3 0.7 0
1196  3.05 0.7 0
1197  3.1 0.7 0
1198  3.15 0.7 0
1199  3.2 0.7 0
1200  3.25 0.7 0
1201  3.3 0.7 0
1202  3.35 0.7 0
1203  3.4 0.7 0
1204  3.45 0.7 0
1205  3.5 0.7 0
1206  3.55 0.7 0
1207  3.6 0.7 0
1208  3.65 0.7 0
1209  3.7 0.7 0
1210  3.75 0.7 0
1211  3.8 0.7 0
1212  3.85 0.7 0
1213  3.9 0.7 0
1214  3.95 0.7 0
1215  4 0.7 0
1216  0 0.75 0
1217  0.05 0.75 0
1218  0.1 0.75 0
1219  0.15 0.75 0
1220  0.2 0.75 0
1221  0.25 0.75 0
1222  0.3 0.75 0
1223  0.35 0.75 0
1224  0.4 0.75 0
1225  0.45 0.75 0
1226  0.5 0.75 0
1227  0.55 0.75 0
1228  0.6 0.75 0
1229  0.65 0.75 0
1230  0.7 0.75 0
1231  0.75 0.75 0
1232  0.8 0.75 0
1233  0.85 0.75 0
1234  0.9 0.75 0
1235  0.95 0.75 0
1236  1 0.75 0
1237  1.05 0.75 0
1238  1.1 0.75 0
1239  1.15 0.75 0
1240  1.2 0.75 0
1241  1.25 0.75 0
1242  1.3 0.75 0
1243  1.35 0.75 0
1244  1.4 0.75 0
1245  1.45 0.75 0
1246  1.5 0.75 0
1247  1.55 0.75 0
1248  1.6 0.75 0
1249  1.65 0.75 0
1250  1.7 0.75 0
1251  1.75 0.75 0
1252  1.8 0.75 0
1253  1.85 0.75 0
1254  1.9 0.75 0
1255  1.95 0.75 0
1256  2 0.75 0
1257  2.05 0.75 0
1258  2.1 0.75 0
1259  2.15 0.75 0
1260  2.2 0.75 0
1261  2.25 0.75 0
1262  2.3 0.75 0
1263  2.35 0.75 0
1264  2.4 0.75 0
1265  2.45 0.75 0
1266  2.5 0.75 0
1267  2.55 0.75 0
1268  2.6 0.75 0
1269  2.65 0.75 0
1270  2.7 0.75 0
1271  2.75 0.75 0
1272  2.8 0.75 0
1273  2.85 0.75 0
1274  2.9 0.75 0
1275  2.95 0.75 0
1276  3 0.75 0
1277  3.05 0.75 0
1278  3.1 0.75 0
1279  3.15 0.75 0
1280  3.2 0.75 0
1281  3.25 0.75 0
1282  3.3 0.75 0
1283  3.35 0.75 0
1284  3.4 0.75 0
1285  3.45 0.75 0
1286  3.5 0.75 0
1287  3.55 0.75 0
1288  3.6 0.75 0
1289  3.65 0.75 0
1290  3.7 0.75 0
1291  3.75 0.75 0
1292  3.8 0.75 0
1293  3.85 0.75 0
1294  3.9 0.75 0
1295  3.95 0.75 0
1296  4 0.75 0
1297  0 0.8 0
1298  0.05 0.8 0
1299  0.1 0.8 0
1300  0.15 0.8 0
1301  0.2 0.8 0
1302  0.25 0.8 0
1303  0.3 0.8 0
1304  0.35 0.8 0
1305  0.4 0.8 0
1306  0.45 0.8 0
1307  0.5 0.8 0
1308  0.55 0.8 0
1309  0.6 0.8 0
1310  0.65 0.8 0
1311  0.7 0.8 0
1312  0.75 0.8 0
1313  0.8 0.8 0
1314  0.85 0.8 0
1315  0.9 0.8 0
1316  0.95 0.8 0
1317  1 0.8 0
1318  1.05 0.8 0
1319  1.1 0.8 0
1320  1.15 0.8 0
1321  1.2 0.8 0
1322  1.25 0.8 0
1323  1.3 0.8 0
1324  1.35 0.8 0
1325  1.4 0.8 0
1326  1.45 0.8 0
1327  1.5 0.8 0
1328  1.55 0.8 0
1329  1.6 0.8 0
1330  1.65 0.8 0
1331  1.7 0.8 0
1332  1.75 0.8 0
1333  1.8 0.8 0
1334  1.85 0.8 0
1335  1.9 0.8 0
1336  1.95 0.8 0
1337  2 0.8 0
1338  2.05 0.8 0
1339  2.1 0.8 0
1340  2.15 0.8 0
1341  2.2 0.8 0
1342  2.25 0.8 0
1343  2.3 0.8 0
1344  2.35 0.8 0
1345  2.4 0.8 0
1346  2.45 0.8 0
1347  2.5 0.8 0
1348  2.55 0.8 0
1349  2.6 0.8 0
1350  2.65 0.8 0
1351  2.7 0.8 0
1352  2.75 0.8 0
1353  2.8 0.8 0
1354  2.85 0.8 0
1355  2.9 0.8 0
1356  2.95 0.8 0
1357  3 0.8 0
1358  3.05 0.8 0
1359  3.1 0.8 0
1360  3.15 0.8 0
1361  3.2 0.8 0
1362  3.25 0.8 0
1363  3.3 0.8 0
1364  3.35 0.8 0
1365  3.4 0.8 0
1366  3.45 0.8 0
1367  3.5 0.8 0
1368  3.55 0.8 0
1369  3.6 0.8 0
1370  3.65 0.8 0
1371  3.7 0.8 0
1372  3.75 0.8 0
1373  3.8 0.8 0
1374  3.85 0.8 0
1375  3.9 0.8 0
1376  3.95 0.8 0
1377  4 0.8 0
1378  0 0.85 0
1379  0.05 0.85 0
1380  0.1 0.85 0
1381  0.15 0.85 0
1382  0.2 0.85 0
1383  0.25 0.85 0
1384  0.3 0.85 0
1385  0.35 0.85 0
1386  0.4 0.85 0
1387  0.45 0.85 0
1388  0.5 0.85 0
1389  0.55 0.85 0
1390  0.6 0.85 0
1391  0.65 0.85 0
1392  0.7 0.85 0
1393  0.75 0.85 0
1394  0.8 0.85 0
1395  0.85 0.85 0
1396  0.9 0.85 0
1397  0.95 0.85 0
1398  1 0.85 0
1399  1.05 0.85 0
1400  1.1 0.85 0
1401  1.15 0.85 0
1402  1.2 0.85 0
1403  1.25 0.85 0
1404  1.3 0.85 0
1405  1.35 0.85 0
1406  1.4 0.85 0
1407  1.45 0.85 0
1408  1.5 0.85 0
1409  1.55 0.85 0
1410  1.6 0.85 0
1411  1.65 0.85 0
1412  1.7 0.85 0
1413  1.75 0.85 0
1414  1.8 0.85 0
1415  1.85 0.85 0
1416  1.9 0.85 0
1417  1.95 0.85 0
1418  2 0.85 0
1419  2.05 0.85 0
1420  2.1 0.85 0
1421  2.15 0.85 0
1422  2.2 0.85 0
1423  2.25 0.85 0
1424  2.3 0.85 0
1425  2.35 0.85 0
1426  2.4 0.85 0
1427  2.45 0.85 0
1428  2.5 0.85 0
1429  2.55 0.85 0
1430  2.6 0.85 0
1431  2.65 0.85 0
1432  2.7 0.85 0
1433  2.75 0.85 0
1434  2.8 0.85 0
1435  2.85 0.85 0
1436  2.9 0.85 0
1437  2.95 0.85 0
1438  3 0.85 0
1439  3.05 0.85 0
1440  3.1 0.85 0
1441  3.15 0.85 0
1442  3.2 0.85 0
1443  3.25 0.85 0
1444  3.3 0.85 0
1445  3.35 0.85 0
1446  3.4 0.85 0
1447  3.45 0.85 0
1448  3.5 0.85 0
1449  3.55 0.85 0
1450  3.6 0.85 0
1451  3.65 0.85 0
1452  3.7 0.85 0
1453  3.75 0.85 0
1454  3.8 0.85 0
1455  3.85 0.85 0
1456  3.9 0.85 0
1457  3.95 0.85 0
1458  4 0.85 0
1459  0 0.9 0
1460  0.05 0.9 0
1461  0.1 0.9 0
1462  0.15 0.9 0
1463  0.2 0.9 0
1464  0.25 0.9 0
1465  0.3 0.9 0
1466  0.35 0.9 0
1467  0.4 0.9 0
1468  0.45 0.9 0
1469  0.5 0.9 0
1470  0.55 0.9 0
1471  0.6 0.9 0
1472  0.65 0.9 0
1473  0.7 0.9 0
1474  0.75 0.9 0
1475  0.8 0.9 0
1476  0.85 0.9 0
1477  0.9 0.9 0
1478  0.95 0.9 0
1479  1 0.9 0
1480  1.05 0.9 0
1481  1.1 0.9 0
1482  1.15 0.9 0
1483  1.2 0.9 0
1484  1.25 0.9 0
1485  1.3 0.9 0
1486  1.35 0.9 0
1487  1.4 0.9 0
1488  1.45 0.9 0
1489  1.5 0.9 0
1490  1.55 0.9 0
1491  1.6 0.9 0
1492  1.65 0.9 0
1493  1.7 0.9 0
1494  1.75 0.9 0
1495  1.8 0.9 0
1496  1.85 0.9 0
1497  1.9 0.9 0
1498  1.95 0.9 0
1499  2 0.9 0
1500  2.05 0.9 0
1501  2.1 0.9 0
1502  2.15 0.9 0
1503  2.2 0.9 0
1504  2.25 0.9 0
1505  2.3 0.9 0
1506  2.35 0.9 0
1507  2.4 0.9 0
1508  2.45 0.9 0
1509  2.5 0.9 0
1510  2.55 0.9 0
1511  2.6 0.9 0
1512  2.65 0.9 0
1513  2.7 0.9 0
1514  2.75 0.9 0
1515  2.8 0.9 0
1516  2.85 0.9 0
1517  2.9 0.9 0
1518  2.95 0.9 0
1519  3 0.9 0
1520  3.05 0.9 0
1521  3.1 0.9 0
1522  3.15 0.9 0
1523  3.2 0.9 0
1524  3.25 0.9 0
1525  3.3 0.9 0
1526  3.35 0.9 0
1527  3.4 0.9 0
1528  3.45 0.9 0
1529  3.5 0.9 0
1530  3.55 0.9 0
1531  3.6 0.9 0
1532  3.65 0.9 0
1533  3.7 0.9 0
1534  3.75 0.9 0
1535  3.8 0.9 0
1536  3.85 0.9 0
1537  3.9 0.9 0
1538  3.95 0.9 0
1539  4 0.9 0
1540  0 0.95 0
1541  0.05 0.95 0
1542  0.1 0.95 0
1543  0.15 0.95 0
1544  0.2 0.95 0
1545  0.25 0.95 0
1546  0.3 0.95 0
1547  0.35 0.95 0
1548  0.4 0.95 0
1549  0.45 0.95 0
1550  0.5 0.95 0
1551  0.55 0.95 0
1552  0.6 0.95 0
1553  0.65 0.95 0
1554  0.7 0.95 0
1555  0.75 0.95 0
1556  0.8 0.95 0
1557  0.85 0.95 0
1558  0.9 0.95 0
1559  0.95 0.95 0
1560  1 0.95 0
1561  1.05 0.95 0
1562  1.1 0.95 0
1563  1.15 0.95 0
1564  1.2 0.95 0
1565  1.25 0.95 0
1566  1.3 0.95 0
1567  1.35 0.95 0
1568  1.4 0.95 0
1569  1.45 0.95 0
1570  1.5 0.95 0
1571  1.55 0.95 0
1572  1.6 0.95 0
1573  1.65 0.95 0
1574  1.7 0.95 0
1575  1.75 0.95 0
1576  1.8 0.95 0
1577  1.85 0.95 0
1578  1.9 0.95 0
1579  1.95 0.95 0
1580  2 0.95 0
1581  2.05 0.95 0
1582  2.1 0.95 0
1583  2.15 0.95 0
1584  2.2 0.95 0
1585  2.25 0.95 0
1586  2.3 0.95 0
1587  2.35 0.95 0
1588  2.4 0.95 0
1589  2.45 0.95 0
1590  2.5 0.95 0
1591  2.55 0.95 0
1592  2.6 0.95 0
1593  2.65 0.95 0
1594  2.7 0.95 0
1595  2.75 0.95 0
1596  2.8 0.95 0
1597  2.85 0.95 0
1598  2.9 0.95 0
1599  2.95 0.95 0
1600  3 0.95 0
1601  3.05 0.95 0
1602  3.1 0.95 0
1603  3.15 0.95 0
1604  3.2 0.95 0
1605  3.25 0.95 0
1606  3.3 0.95 0
1607  3.35 0.95 0
1608  3.4 0.95 0
1609  3.45 0.95 0
1610  3.5 0.95 0
1611  3.55 0.95 0
1612  3.6 0.95 0
1613  3.65 0.95 0
1614  3.7 0.95 0
1615  3.75 0.95 0
1616  3.8 0.95 0
1617  3.85 0.95 0
1618  3.9 0.95 0
1619  3.95 0.95 0
1620  4 0.95 0
1621  0 1 0
1622  0.05 1 0
1623  0.1 1 0
1624  0.15 1 0
1625  0.2 1 0
1626  0.25 1 0
1627  0.3 1 0
1628  0.35 1 0
1629  0.4 1 0
1630  0.45 1 0
1631  0.5 1 0
1632  0.55 1 0
1633  0.6 1 0
1634  0.65 1 0
1635  0.7 1 0
1636  0.75 1 0
1637  0.8 1 0
1638  0.85 1 0
1639  0.9 1 0
1640  0.95 1 0
1641  1 1 0
1642  1.05 1 0
1643  1.1 1 0
1644  1.15 1 0
1645  1.2 1 0
1646  1.25 1 0
1647  1.3 1 0
1648  1.35 1 0
1649  1.4 1 0
1650  1.45 1 0
1651  1.5 1 0
1652  1.55 1 0
1653  1.6 1 0
1654  1.65 1 0
1655  1.7 1 0
1656  1.75 1 0
1657  1.8 1 0
1658  1.85 1 0
1659  1.9 1 0
1660  1.95 1 0
1661  2 1 0
1662  2.05 1 0
1663  2.1 1 0
1664  2.15 1 0
1665  2.2 1 0
1666  2.25 1 0
1667  2.3 1 0
1668  2.35 1 0
1669  2.4 1 0
1670  2.45 1 0
1671  2.5 1 0
1672  2.55 1 0
1673  2.6 1 0
1674  2.65 1 0
1675  2.7 1 0
1676  2.75 1 0
1677  2.8 1 0
1678  2.85 1 0
1679  2.9 1 0
1680  2.95 1 0
1681  3 1 0
1682  3.05 1 0
1683  3.1 1 0
1684  3.15 1 0
1685  3.2 1 0
1686  3.25 1 0
1687  3.3 1 0
1688  3.35 1 0
1689  3.4 1 0
1690  3.45 1 0
1691  3.5 1 0
1692  3.55 1 0
1693  3.6 1 0
1694  3.65 1 0
1695  3.7 1 0
1696  3.75 1 0
1697  3.8 1 0
1698  3.85 1 0
1699  3.9 1 0
1700  3.95 1 0
1701  4 1 0
1702  0.925 0 0
1703  0.9 0.025 0
1704  0.975 0 0
1705  0.95 0.025 0
1706  1.025 0 0
1707  1 0.025 0
1708  1.075 0 0
1709  1.05 0.025 0
1710  1.125 0 0
1711  1.1 0.025 0
1712  1.175 0 0
1713  1.15 0.025 0
1714  1.2 0.025 0
1715  0.925 0.05 0
1716  0.9 0.075 0
1717  0.975 0.05 0
1718  0.95 0.075 0
1719  1.025 0.05 0
1720  1 0.075 0
1721  1.075 0.05 0
1722  1.05 0.075 0
1723  1.125 0.05 0
1724  1.1 0.075 0
1725  1.175 0.05 0
1726  1.15 0.075 0
1727  1.2 0.075 0
1728  0.925 0.1 0
1729  0.9 0.125 0
1730  0.975 0.1 0
1731  0.95 0.125 0
1732  1.025 0.1 0
1733  1 0.125 0
1734  1.075 0.1 0
1735  1.05 0.125 0
1736  1.125 0.1 0
1737  1.1 0.125 0
1738  1.175 0.1 0
1739  1.15 0.125 0
1740  1.2 0.125 0
1741  0.925 0.15 0
1742  0.9 0.175 0
1743  0.975 0.15 0
1744  0.95 0.175 0
1745  1.025 0.15 0
1746  1 0.175 0
1747  1.075 0.15 0
1748  1.05 0.175 0
1749  1.125 0.15 0
1750  1.1 0.175 0
1751  1.175 0.15 0
1752  1.15 0.175 0
1753  1.2 0.175 0
1754  0.925 0.2 0
1755  0.9 0.225 0
1756  0.975 0.2 0
1757  0.95 0.225 0
1758  1.025 0.2 0
1759  1 0.225 0
1760  1.075 0.2 0
1761  1.05 0.225 0
1762  1.125 0.2 0
1763  1.1 0.225 0
1764  1.175 0.2 0
1765  1.15 0.225 0
1766  1.2 0.225 0
1767  0.925 0.25 0
1768  0.9 0.275 0
1769  0.975 0.25 0
1770  0.95 0.275 0
1771  1.025 0.25 0
1772  1 0.275 0
1773  1.075 0.25 0
1774  1.05 0.275 0
1775  1.125 0.25 0
1776  1.1 0.275 0
1777  1.175 0.25 0
1778  1.15 0.275 0
1779  1.2 0.275 0
1780  0.925 0.3 0
1781  0.9 0.325 0
1782  0.975 0.3 0
1783  0.95 0.325 0
1784  1.025 0.3 0
1785  1 0.325 0
1786  1.075 0.3 0
1787  1.05 0.325 0
1788  1.125 0.3 0
1789  1.1 0.325 0
1790  1.175 0.3 0
1791  1.15 0.325 0
1792  1.2 0.325 0
1793  0.925 0.35 0
1794  0.9 0.375 0
1795  0.975 0.35 0
1796  0.95 0.375 0
1797  1.025 0.35 0
1798  1 0.375 0
1799  1.075 0.35 0
1800  1.05 0.375 0
1801  1.125 0.35 0
1802  1.1 0.375 0
1803  1.175 0.35 0
1804  1.15 0.375 0
1805  1.2 0.375 0
1806  0.925 0.4 0
1807  0.9 0.425 0
1808  0.975 0.4 0
1809  0.95 0.425 0
1810  1.025 0.4 0
1811  1 0.425 0
1812  1.075 0.4 0
1813  1.05 0.425 0
1814  1.125 0.4 0
1815  1.1 0.425 0
1816  1.175 0.4 0
1817  1.15 0.425 0
1818  1.2 0.425 0
1819  0.925 0.45 0
1820  0.9 0.475 0
1821  0.975 0.45 0
1822  0.95 0.475 0
1823  1.025 0.45 0
1824  1 0.475 0
1825  1.075 0.45 0
1826  1.05 0.475 0
1827  1.125 0.45 0
1828  1.1 0.475 0
1829  1.175 0.45 0
1830  1.15 0.475 0
1831  1.2 0.475 0
1832  0.925 0.5 0
1833  0.975 0.5 0
1834  1.025 0.5 0
1835  1.075 0.5 0
1836  1.125 0.5 0
1837  1.175 0.5 0
1838  0.925 0.025 0
1839  0.975 0.025 0
1840  1.025 0.025 0
1841  1.075 0.025 0
1842  1.125 0.025 0
1843  1.175 0.025 0
1844  0.925 0.075 0
1845  0.975 0.075 0
1846  1.025 0.075 0
1847  1.075 0.075 0
1848  1.125 0.075 0
1849  1.175 0.075 0
1850  0.925 0.125 0
1851  0.975 0.125 0
1852  1.025 0.125 0
1853  1.075 0.125 0
1854  1.125 0.125 0
1855  1.175 0.125 0
1856  0.925 0.175 0
1857  0.975 0.175 0
1858  1.025 0.175 0
1859  1.075 0.175 0
1860  1.125 0.175 0
1861  1.175 0.175 0
1862  0.925 0.225 0
1863  0.975 0.225 0
1864  1.025 0.225 0
1865  1.075 0.225 0
1866  1.125 0.225 0
1867  1.175 0.225 0
1868  0.925 0.275 0
1869  0.975 0.275 0
1870  1.025 0.275 0
1871  1.075 0.275 0
1872  1.125 0.275 0
1873  1.175 0.275 0
1874  0.925 0.325 0
1875  0.975 0.325 0
1876  1.025 0.325 0
1877  1.075 0.325 0
1878  1.125 0.325 0
1879  1.175 0.325 0
1880  0.925 0.375 0
1881  0.975 0.375 0
1882  1.025 0.375 0
1883  1.075 0.375 0
1884  1.125 0.375 0
1885  1.175 0.375 0
1886  0.925 0.425 0
1887  0.975 0.425 0
1888  1.025 0.425 0
1889  1.075 0.425 0
1890  1.125 0.425 0
1891  1.175 0.425 0
1892  0.925 0.475 0
1893  0.975 0.475 0
1894  1.025 0.475 0
1895  1.075 0.475 0
1896  1.125 0.475 0
1897  1.175 0.475 0
$ENDNOD
$ELM
1780
1 3 3 0 4 1 2 83 82 
2 3 3 0 4 2 3 84 83 
3 3 3 0 4 3 4 85 84 
4 3 3 0 4 4 5 86 85 
5 3 3 0 4 5 6 87 86 
6 3 3 0 4 6 7 88 87 
7 3 3 0 4 7 8 89 88 
8 3 3 0 4 8 9 90 89 
9 3 3 0 4 9 10 91 90 
10 3 3 0 4 10 11 92 91 
11 3 3 0 4 11 12 93 92 
12 3 3 0 4 12 13 94 93 
13 3 3 0 4 13 14 95 94 
14 3 3 0 4 14 15 96 95 
15 3 3 0 4 15 16 97 96 
16 3 3 0 4 16 17 98 97 
17 3 3 0 4 17 18 99 98 
18 3 3 0 4 18 19 100 99 
19 3 3 0 4 25 26 107 106 
20 3 3 0 4 26 27 108 107 
21 3 3 0 4 27 28 109 108 
22 3 3 0 4 28 29 110 109 
23 3 3 0 4 29 30 111 110 
24 3 3 0 4 30 31 112 111 
25 3 3 0 4 31 32 113 112 
26 3 3 0 4 32 33 114 113 
27 3 3 0 4 33 34 115 114 
28 3 3 0 4 34 35 116 115 
29 3 3 0 4 35 36 117 116 
30 3 3 0 4 36 37 118 117 
31 3 3 0 4 37 38 119 118 
32 3 3 0 4 38 39 120 119 
33 3 3 0 4 39 40 121 120 
34 3 3 0 4 40 41 122 121 
35 3 3 0 4 41 42 123 122 
36 3 3 0 4 42 43 124 123 
37 3 3 0 4 43 44 125 124 
38 3 3 0 4 44 45 126 125 
39 3 3 0 4 45 46 127 126 
40 3 3 0 4 46 47 128 127 
41 3 3 0 4 47 48 129 128 
42 3 3 0 4 48 49 130 129 
43 3 3 0 4 49 50 131 130 
44 3 3 0 4 50 51 132 131 
45 3 3 0 4 51 52 133 132 
46 3 3 0 4 52 53 134 133 
47 3 3 0 4 53 54 135 134 
48 3 3 0 4 54 55 136 135 
49 3 3 0 4 55 56 137 136 
50 3 3 0 4 56 57 138 137 
51 3 3 0 4 57 58 139 138 
52 3 3 0 4 58 59 140 139 
53 3 3 0 4 59 60 141 140 
54 3 3 0 4 60 61 142 141 
55 3 3 0 4 61 62 143 142 
56 3 3 0 4 62 63 144 143 
57 3 3 0 4 63 64 145 144 
58 3 3 0 4 64 65 146 145 
59 3 3 0 4 65 66 147 146 
60 3 3 0 4 66 67 148 147 
61 3 3 0 4 67 68 149 148 
62 3 3 0 4 68 69 150 149 
63 3 3 0 4 69 70 151 150 
64 3 3 0 4 70 71 152 151 
65 3 3 0 4 71 72 153 152 
66 3 3 0 4 72 73 154 153 
67 3 3 0 4 73 74 155 154 
68 3 3 0 4 74 75 156 155 
69 3 3 0 4 75 76 157 156 
70 3 3 0 4 76 77 158 157 
71 3 3 0 4 77 78 159 158 
72 3 3 0 4 78 79 160 159 
73 3 3 0 4 79 80 161 160 
74 3 3 0 4 80 81 162 161 
75 3 3 0 4 82 83 164 163 
76 3 3 0 4 83 84 165 164 
77 3 3 0 4 84 85 166 165 
78 3 3 0 4 85 86 167 166 
79 3 3 0 4 86 87 168 167 
80 3 3 0 4 87 88 169 168 
81 3 3 0 4 88 89 170 169 
82 3 3 0 4 89 90 171 170 
83 3 3 0 4 90 91 172 171 
84 3 3 0 4 91 92 173 172 
85 3 3 0 4 92 93 174 173 
86 3 3 0 4 93 94 175 174 
87 3 3 0 4 94 95 176 175 
88 3 3 0 4 95 96 177 176 
89 3 3 0 4 96 97 178 177 
90 3 3 0 4 97 98 179 178 
91 3 3 0 4 98 99 180 179 
92 3 3 0 4 99 100 181 180 
93 3 3 0 4 106 107 188 187 
94 3 3 0 4 107 108 189 188 
95 3 3 0 4 108 109 190 189 
96 3 3 0 4 109 110 191 190 
97 3 3 0 4 110 111 192 191 
98 3 3 0 4 111 112 193 192 
99 3 3 0 4 112 113 194 193 
100 3 3 0 4 113 114 195 194 
101 3 3 0 4 114 115 196 195 
102 3 3 0 4 115 116 197 196 
103 3 3 0 4 116 117 198 197 
104 3 3 0 4 117 118 199 198 
105 3 3 0 4 118 119 200 199 
106 3 3 0 4 119 120 201 200 
107 3 3 0 4 120 121 202 201 
108 3 3 0 4 121 122 203 202 
109 3 3 0 4 122 123 204 203 
110 3 3 0 4 123 124 205 204 
111 3 3 0 4 124 125 206 205 
112 3 3 0 4 125 126 207 206 
113 3 3 0 4 126 127 208 207 
114 3 3 0 4 127 128 209 208 
115 3 3 0 4 128 129 210 209 
116 3 3 0 4 129 130 211 210 
117 3 3 0 4 130 131 212 211 
118 3 3 0 4 131 132 213 212 
119 3 3 0 4 132 133 214 213 
120 3 3 0 4 133 134 215 214 
121 3 3 0 4 134 135 216 215 
122 3 3 0 4 135 136 217 216 
123 3 3 0 4 136 137 218 217 
124 3 3 0 4 137 138 219 218 
125 3 3 0 4 138 139 220 219 
126 3 3 0 4 139 140 221 220 
127 3 3 0 4 140 141 222 221 
128 3 3 0 4 141 142 223 222 
129 3 3 0 4 142 143 224 223 
130 3 3 0 4 143 144 225 224 
131 3 3 0 4 144 145 226 225 
132 3 3 0 4 145 146 227 226 
133 3 3 0 4 146 147 228 227 
134 3 3 0 4 147 148 229 228 
135 3 3 0 4 148 149 230 229 
136 3 3 0 4 149 150 231 230 
137 3 3 0 4 150 151 232 231 
138 3 3 0 4 151 152 233 232 
139 3 3 0 4 152 153 234 233 
140 3 3 0 4 153 154 235 234 
141 3 3 0 4 154 155 236 235 
142 3 3 0 4 155 156 237 236 
143 3 3 0 4 156 157 238 237 
144 3 3 0 4 157 158 239 238 
145 3 3 0 4 158 159 240 239 
146 3 3 0 4 159 160 241 240 
147 3 3 0 4 160 161 242 241 
148 3 3 0 4 161 162 243 242 
149 3 3 0 4 163 164 245 244 
150 3 3 0 4 164 165 246 245 
151 3 3 0 4 165 166 247 246 
152 3 3 0 4 166 167 248 247 
153 3 3 0 4 167 168 249 248 
154 3 3 0 4 168 169 250 249 
155 3 3 0 4 169 170 251 250 
156 3 3 0 4 170 171 252 251 
157 3 3 0 4 171 172 253 252 
158 3 3 0 4 172 173 254 253 
159 3 3 0 4 173 174 255 254 
160 3 3 0 4 174 175 256 255 
161 3 3 0 4 175 176 257 256 
162 3 3 0 4 176 177 258 257 
163 3 3 0 4 177 178 259 258 
164 3 3 0 4 178 179 260 259 
165 3 3 0 4 179 180 261 260 
166 3 3 0 4 180 181 262 261 
167 3 3 0 4 187 188 269 268 
168 3 3 0 4 188 189 270 269 
169 3 3 0 4 189 190 271 270 
170 3 3 0 4 190 191 272 271 
171 3 3 0 4 191 192 273 272 
172 3 3 0 4 192 193 274 273 
173 3 3 0 4 193 194 275 274 
174 3 3 0 4 194 195 276 275 
175 3 3 0 4 195 196 277 276 
176 3 3 0 4 196 197 278 277 
177 3 3 0 4 197 198 279 278 
178 3 3 0 4 198 199 280 279 
179 3 3 0 4 199 200 281 280 
180 3 3 0 4 200 201 282 281 
181 3 3 0 4 201 202 283 282 
182 3 3 0 4 202 203 284 283 
183 3 3 0 4 203 204 285 284 
184 3 3 0 4 204 205 286 285 
185 3 3 0 4 205 206 287 286 
186 3 3 0 4 206 207 288 287 
187 3 3 0 4 207 208 289 288 
188 3 3 0 4 208 209 290 289 
189 3 3 0 4 209 210 291 290 
190 3 3 0 4 210 211 292 291 
191 3 3 0 4 211 212 293 292 
192 3 3 0 4 212 213 294 293 
193 3 3 0 4 213 214 295 294 
194 3 3 0 4 214 215 296 295 
195 3 3 0 4 215 216 297 296 
196 3 3 0 4 216 217 298 297 
197 3 3 0 4 217 218 299 298 
198 3 3 0 4 218 219 300 299 
199 3 3 0 4 219 220 301 300 
200 3 3 0 4 220 221 302 301 
201 3 3 0 4 221 222 303 302 
202 3 3 0 4 222 223 304 303 
203 3 3 0 4 223 224 305 304 
204 3 3 0 4 224 225 306 305 
205 3 3 0 4 225 226 307 306 
206 3 3 0 4 226 227 308 307 
207 3 3 0 4 227 228 309 308 
208 3 3 0 4 228 229 310 309 
209 3 3 0 4 229 230 311 310 
210 3 3 0 4 230 231 312 311 
211 3 3 0 4 231 232 313 312 
212 3 3 0 4 232 233 314 313 
213 3 3 0 4 233 234 315 314 
214 3 3 0 4 234 235 316 315 
215 3 3 0 4 235 236 317 316 
216 3 3 0 4 236 237 318 317 
217 3 3 0 4 237 238 319 318 
218 3 3 0 4 238 239 320 319 
219 3 3 0 4 239 240 321 320 
220 3 3 0 4 240 241 322 321 
221 3 3 0 4 241 242 323 322 
222 3 3 0 4 242 243 324 323 
223 3 3 0 4 244 245 326 325 
224 3 3 0 4 245 246 327 326 
225 3 3 0 4 246 247 328 327 
226 3 3 0 4 247 248 329 328 
227 3 3 0 4 248 249 330 329 
228 3 3 0 4 249 250 331 330 
229 3 3 0 4 250 251 332 331 
230 3 3 0 4 251 252 333 332 
231 3 3 0 4 252 253 334 333 
232 3 3 0 4 253 254 335 334 
233 3 3 0 4 254 255 336 335 
234 3 3 0 4 255 256 337 336 
235 3 3 0 4 256 257 338 337 
236 3 3 0 4 257 258 339 338 
237 3 3 0 4 258 259 340 339 
238 3 3 0 4 259 260 341 340 
239 3 3 0 4 260 261 342 341 
240 3 3 0 4 261 262 343 342 
241 3 3 0 4 268 269 350 349 
242 3 3 0 4 269 270 351 350 
243 3 3 0 4 270 271 352 351 
244 3 3 0 4 271 272 353 352 
245 3 3 0 4 272 273 354 353 
246 3 3 0 4 273 274 355 354 
247 3 3 0 4 274 275 356 355 
248 3 3 0 4 275 276 357 356 
249 3 3 0 4 276 277 358 357 
250 3 3 0 4 277 278 359 358 
251 3 3 0 4 278 279 360 359 
252 3 3 0 4 279 280 361 360 
253 3 3 0 4 280 281 362 361 
254 3 3 0 4 281 282 363 362 
255 3 3 0 4 282 283 364 363 
256 3 3 0 4 283 284 365 364 
257 3 3 0 4 284 285 366 365 
258 3 3 0 4 285 286 367 366 
259 3 3 0 4 286 287 368 367 
260 3 3 0 4 287 288 369 368 
261 3 3 0 4 288 289 370 369 
262 3 3 0 4 289 290 371 370 
263 3 3 0 4 290 291 372 371 
264 3 3 0 4 291 292 373 372 
265 3 3 0 4 292 293 374 373 
266 3 3 0 4 293 294 375 374 
267 3 3 0 4 294 295 376 375 
268 3 3 0 4 295 296 377 376 
269 3 3 0 4 296 297 378 377 
270 3 3 0 4 297 298 379 378 
271 3 3 0 4 298 299 380 379 
272 3 3 0 4 299 300 381 380 
273 3 3 0 4 300 301 382 381 
274 3 3 0 4 301 302 383 382 
275 3 3 0 4 302 303 384 383 
276 3 3 0 4 303 304 385 384 
277 3 3 0 4 304 305 386 385 
278 3 3 0 4 305 306 387 386 
279 3 3 0 4 306 307 388 387 
280 3 3 0 4 307 308 389 388 
281 3 3 0 4 308 309 390 389 
282 3 3 0 4 309 310 391 390 
283 3 3 0 4 310 311 392 391 
284 3 3 0 4 311 312 393 392 
285 3 3 0 4 312 313 394 393 
286 3 3 0 4 313 314 395 394 
287 3 3 0 4 314 315 396 395 
288 3 3 0 4 315 316 397 396 
289 3 3 0 4 316 317 398 397 
290 3 3 0 4 317 318 399 398 
291 3 3 0 4 318 319 400 399 
292 3 3 0 4 319 320 401 400 
293 3 3 0 4 320 321 402 401 
294 3 3 0 4 321 322 403 402 
295 3 3 0 4 322 323 404 403 
296 3 3 0 4 323 324 405 404 
297 3 3 0 4 325 326 407 406 
298 3 3 0 4 326 327 408 407 
299 3 3 0 4 327 328 409 408 
300 3 3 0 4 328 329 410 409 
301 3 3 0 4 329 330 411 410 
302 3 3 0 4 330 331 412 411 
303 3 3 0 4 331 332 413 412 
304 3 3 0 4 332 333 414 413 
305 3 3 0 4 333 334 415 414 
306 3 3 0 4 334 335 416 415 
307 3 3 0 4 335 336 417 416 
308 3 3 0 4 336 337 418 417 
309 3 3 0 4 337 338 419 418 
310 3 3 0 4 338 339 420 419 
311 3 3 0 4 339 340 421 420 
312 3 3 0 4 340 341 422 421 
313 3 3 0 4 341 342 423 422 
314 3 3 0 4 342 343 424 423 
315 3 3 0 4 349 350 431 430 
316 3 3 0 4 350 351 432 431 
317 3 3 0 4 351 352 433 432 
318 3 3 0 4 352 353 434 433 
319 3 3 0 4 353 354 435 434 
320 3 3 0 4 354 355 436 435 
321 3 3 0 4 355 356 437 436 
322 3 3 0 4 356 357 438 437 
323 3 3 0 4 357 358 439 438 
324 3 3 0 4 358 359 440 439 
325 3 3 0 4 359 360 441 440 
326 3 3 0 4 360 361 442 441 
327 3 3 0 4 361 362 443 442 
328 3 3 0 4 362 363 444 443 
329 3 3 0 4 363 364 445 444 
330 3 3 0 4 364 365 446 445 
331 3 3 0 4 365 366 447 446 
332 3 3 0 4 366 367 448 447 
333 3 3 0 4 367 368 449 448 
334 3 3 0 4 368 369 450 449 
335 3 3 0 4 369 370 451 450 
336 3 3 0 4 370 371 452 451 
337 3 3 0 4 371 372 453 452 
338 3 3 0 4 372 373 454 453 
339 3 3 0 4 373 374 455 454 
340 3 3 0 4 374 375 456 455 
341 3 3 0 4 375 376 457 456 
342 3 3 0 4 376 377 458 457 
343 3 3 0 4 377 378 459 458 
344 3 3 0 4 378 379 460 459 
345 3 3 0 4 379 380 461 460 
346 3 3 0 4 380 381 462 461 
347 3 3 0 4 381 382 463 462 
348 3 3 0 4 382 383 464 463 
349 3 3 0 4 383 384 465 464 
350 3 3 0 4 384 385 466 465 
351 3 3 0 4 385 386 467 466 
352 3 3 0 4 386 387 468 467 
353 3 3 0 4 387 388 469 468 
354 3 3 0 4 388 389 470 469 
355 3 3 0 4 389 390 471 470 
356 3 3 0 4 390 391 472 471 
357 3 3 0 4 391 392 473 472 
358 3 3 0 4 392 393 474 473 
359 3 3 0 4 393 394 475 474 
360 3 3 0 4 394 395 476 475 
361 3 3 0 4 395 396 477 476 
362 3 3 0 4 396 397 478 477 
363 3 3 0 4 397 398 479 478 
364 3 3 0 4 398 399 480 479 
365 3 3 0 4 399 400 481 480 
366 3 3 0 4 400 401 482 481 
367 3 3 0 4 401 402 483 482 
368 3 3 0 4 402 403 484 483 
369 3 3 0 4 403 404 485 484 
370 3 3 0 4 404 405 486 485 
371 3 3 0 4 406 407 488 487 
372 3 3 0 4 407 408 489 488 
373 3 3 0 4 408 409 490 489 
374 3 3 0 4 409 410 491 490 
375 3 3 0 4 410 411 492 491 
376 3 3 0 4 411 412 493 492 
377 3 3 0 4 412 413 494 493 
378 3 3 0 4 413 414 495 494 
379 3 3 0 4 414 415 496 495 
380 3 3 0 4 415 416 497 496 
381 3 3 0 4 416 417 498 497 
382 3 3 0 4 417 418 499 498 
383 3 3 0 4 418 419 500 499 
384 3 3 0 4 419 420 501 500 
385 3 3 0 4 420 421 502 501 
386 3 3 0 4 421 422 503 502 
387 3 3 0 4 422 423 504 503 
388 3 3 0 4 423 424 505 504 
389 3 3 0 4 430 431 512 511 
390 3 3 0 4 431 432 513 512 
391 3 3 0 4 432 433 514 513 
392 3 3 0 4 433 434 515 514 
393 3 3 0 4 434 435 516 515 
394 3 3 0 4 435 436 517 516 
395 3 3 0 4 436 437 518 517 
396 3 3 0 4 437 438 519 518 
397 3 3 0 4 438 439 520 519 
398 3 3 0 4 439 440 521 520 
399 3 3 0 4 440 441 522 521 
400 3 3 0 4 441 442 523 522 
401 3 3 0 4 442 443 524 523 
402 3 3 0 4 443 444 525 524 
403 3 3 0 4 444 445 526 525 
404 3 3 0 4 445 446 527 526 
405 3 3 0 4 446 447 528 527 
406 3 3 0 4 447 448 529 528 
407 3 3 0 4 448 449 530 529 
408 3 3 0 4 449 450 531 530 
409 3 3 0 4 450 451 532 531 
410 3 3 0 4 451 452 533 532 
411 3 3 0 4 452 453 534 533 
412 3 3 0 4 453 454 535 534 
413 3 3 0 4 454 455 536 535 
414 3 3 0 4 455 456 537 536 
415 3 3 0 4 456 457 538 537 
416 3 3 0 4 457 458 539 538 
417 3 3 0 4 458 459 540 539 
418 3 3 0 4 459 460 541 540 
419 3 3 0 4 460 461 542 541 
420 3 3 0 4 461 462 543 542 
421 3 3 0 4 462 463 544 543 
422 3 3 0 4 463 464 545 544 
423 3 3 0 4 464 465 546 545 
424 3 3 0 4 465 466 547 546 
425 3 3 0 4 466 467 548 547 
426 3 3 0 4 467 468 549 548 
427 3 3 0 4 468 469 550 549 
428 3 3 0 4 469 470 551 550 
429 3 3 0 4 470 471 552 551 
430 3 3 0 4 471 472 553 552 
431 3 3 0 4 472 473 554 553 
432 3 3 0 4 473 474 555 554 
433 3 3 0 4 474 475 556 555 
434 3 3 0 4 475 476 557 556 
435 3 3 0 4 476 477 558 557 
436 3 3 0 4 477 478 559 558 
437 3 3 0 4 478 479 560 559 
438 3 3 0 4 479 480 561 560 
439 3 3 0 4 480 481 562 561 
440 3 3 0 4 481 482 563 562 
441 3 3 0 4 482 483 564 563 
442 3 3 0 4 483 484 565 564 
443 3 3 0 4 484 485 566 565 
444 3 3 0 4 485 486 567 566 
445 3 3 0 4 487 488 569 568 
446 3 3 0 4 488 489 570 569 
447 3 3 0 4 489 490 571 570 
448 3 3 0 4 490 491 572 571 
449 3 3 0 4 491 492 573 572 
450 3 3 0 4 492 493 574 573 
451 3 3 0 4 493 494 575 574 
452 3 3 0 4 494 495 576 575 
453 3 3 0 4 495 496 577 576 
454 3 3 0 4 496 497 578 577 
455 3 3 0 4 497 498 579 578 
456 3 3 0 4 498 499 580 579 
457 3 3 0 4 499 500 581 580 
458 3 3 0 4 500 501 582 581 
459 3 3 0 4 501 502 583 582 
460 3 3 0 4 502 503 584 583 
461 3 3 0 4 503 504 585 584 
462 3 3 0 4 504 505 586 585 
463 3 3 0 4 511 512 593 592 
464 3 3 0 4 512 513 594 593 
465 3 3 0 4 513 514 595 594 
466 3 3 0 4 514 515 596 595 
467 3 3 0 4 515 516 597 596 
468 3 3 0 4 516 517 598 597 
469 3 3 0 4 517 518 599 598 
470 3 3 0 4 518 519 600 599 
471 3 3 0 4 519 520 601 600 
472 3 3 0 4 520 521 602 601 
473 3 3 0 4 521 522 603 602 
474 3 3 0 4 522 523 604 603 
475 3 3 0 4 523 524 605 604 
476 3 3 0 4 524 525 606 605 
477 3 3 0 4 525 526 607 606 
478 3 3 0 4 526 527 608 607 
479 3 3 0 4 527 528 609 608 
480 3 3 0 4 528 529 610 609 
481 3 3 0 4 529 530 611 610 
482 3 3 0 4 530 531 612 611 
483 3 3 0 4 531 532 613 612 
484 3 3 0 4 532 533 614 613 
485 3 3 0 4 533 534 615 614 
486 3 3 0 4 534 535 616 615 
487 3 3 0 4 535 536 617 616 
488 3 3 0 4 536 537 618 617 
489 3 3 0 4 537 538 619 618 
490 3 3 0 4 538 539 620 619 
491 3 3 0 4 539 540 621 620 
492 3 3 0 4 540 541 622 621 
493 3 3 0 4 541 542 623 622 
494 3 3 0 4 542 543 624 623 
495 3 3 0 4 543 544 625 624 
496 3 3 0 4 544 545 626 625 
497 3 3 0 4 545 546 627 626 
498 3 3 0 4 546 547 628 627 
499 3 3 0 4 547 548 629 628 
500 3 3 0 4 548 549 630 629 
501 3 3 0 4 549 550 631 630 
502 3 3 0 4 550 551 632 631 
503 3 3 0 4 551 552 633 632 
504 3 3 0 4 552 553 634 633 
505 3 3 0 4 553 554 635 634 
506 3 3 0 4 554 555 636 635 
507 3 3 0 4 555 556 637 636 
508 3 3 0 4 556 557 638 637 
509 3 3 0 4 557 558 639 638 
510 3 3 0 4 558 559 640 639 
511 3 3 0 4 559 560 641 640 
512 3 3 0 4 560 561 642 641 
513 3 3 0 4 561 562 643 642 
514 3 3 0 4 562 563 644 643 
515 3 3 0 4 563 564 645 644 
516 3 3 0 4 564 565 646 645 
517 3 3 0 4 565 566 647 646 
518 3 3 0 4 566 567 648 647 
519 3 3 0 4 568 569 650 649 
520 3 3 0 4 569 570 651 650 
521 3 3 0 4 570 571 652 651 
522 3 3 0 4 571 572 653 652 
523 3 3 0 4 572 573 654 653 
524 3 3 0 4 573 574 655 654 
525 3 3 0 4 574 575 656 655 
526 3 3 0 4 575 576 657 656 
527 3 3 0 4 576 577 658 657 
528 3 3 0 4 577 578 659 658 
529 3 3 0 4 578 579 660 659 
530 3 3 0 4 579 580 661 660 
531 3 3 0 4 580 581 662 661 
532 3 3 0 4 581 582 663 662 
533 3 3 0 4 582 583 664 663 
534 3 3 0 4 583 584 665 664 
535 3 3 0 4 584 585 666 665 
536 3 3 0 4 585 586 667 666 
537 3 3 0 4 592 593 674 673 
538 3 3 0 4 593 594 675 674 
539 3 3 0 4 594 595 676 675 
540 3 3 0 4 595 596 677 676 
541 3 3 0 4 596 597 678 677 
542 3 3 0 4 597 598 679 678 
543 3 3 0 4 598 599 680 679 
544 3 3 0 4 599 600 681 680 
545 3 3 0 4 600 601 682 681 
546 3 3 0 4 601 602 683 682 
547 3 3 0 4 602 603 684 683 
548 3 3 0 4 603 604 685 684 
549 3 3 0 4 604 605 686 685 
550 3 3 0 4 605 606 687 686 
551 3 3 0 4 606 607 688 687 
552 3 3 0 4 607 608 689 688 
553 3 3 0 4 608 609 690 689 
554 3 3 0 4 609 610 691 690 
555 3 3 0 4 610 611 692 691 
556 3 3 0 4 611 612 693 692 
557 3 3 0 4 612 613 694 693 
558 3 3 0 4 613 614 695 694 
559 3 3 0 4 614 615 696 695 
560 3 3 0 4 615 616 697 696 
561 3 3 0 4 616 617 698 697 
562 3 3 0 4 617 618 699 698 
563 3 3 0 4 618 619 700 699 
564 3 3 0 4 619 620 701 700 
565 3 3 0 4 620 621 702 701 
566 3 3 0 4 621 622 703 702 
567 3 3 0 4 622 623 704 703 
568 3 3 0 4 623 624 705 704 
569 3 3 0 4 624 625 706 705 
570 3 3 0 4 625 626 707 706 
571 3 3 0 4 626 627 708 707 
572 3 3 0 4 627 628 709 708 
573 3 3 0 4 628 629 710 709 
574 3 3 0 4 629 630 711 710 
575 3 3 0 4 630 631 712 711 
576 3 3 0 4 631 632 713 712 
577 3 3 0 4 632 633 714 713 
578 3 3 0 4 633 634 715 714 
579 3 3 0 4 634 635 716 715 
580 3 3 0 4 635 636 717 716 
581 3 3 0 4 636 637 718 717 
582 3 3 0 4 637 638 719 718 
583 3 3 0 4 638 639 720 719 
584 3 3 0 4 639 640 721 720 
585 3 3 0 4 640 641 722 721 
586 3 3 0 4 641 642 723 722 
587 3 3 0 4 642 643 724 723 
588 3 3 0 4 643 644 725 724 
589 3 3 0 4 644 645 726 725 
590 3 3 0 4 645 646 727 726 
591 3 3 0 4 646 647 728 727 
592 3 3 0 4 647 648 729 728 
593 3 3 0 4 649 650 731 730 
594 3 3 0 4 650 651 732 731 
595 3 3 0 4 651 652 733 732 
596 3 3 0 4 652 653 734 733 
597 3 3 0 4 653 654 735 734 
598 3 3 0 4 654 655 736 735 
599 3 3 0 4 655 656 737 736 
600 3 3 0 4 656 657 738 737 
601 3 3 0 4 657 658 739 738 
602 3 3 0 4 658 659 740 739 
603 3 3 0 4 659 660 741 740 
604 3 3 0 4 660 661 742 741 
605 3 3 0 4 661 662 743 742 
606 3 3 0 4 662 663 744 743 
607 3 3 0 4 663 664 745 744 
608 3 3 0 4 664 665 746 745 
609 3 3 0 4 665 666 747 746 
610 3 3 0 4 666 667 748 747 
611 3 3 0 4 673 674 755 754 
612 3 3 0 4 674 675 756 755 
613 3 3 0 4 675 676 757 756 
614 3 3 0 4 676 677 758 757 
615 3 3 0 4 677 678 759 758 
616 3 3 0 4 678 679 760 759 
617 3 3 0 4 679 680 761 760 
618 3 3 0 4 680 681 762 761 
619 3 3 0 4 681 682 763 762 
620 3 3 0 4 682 683 764 763 
621 3 3 0 4 683 684 765 764 
622 3 3 0 4 684 685 766 765 
623 3 3 0 4 685 686 767 766 
624 3 3 0 4 686 687 768 767 
625 3 3 0 4 687 688 769 768 
626 3 3 0 4 688 689 770 769 
627 3 3 0 4 689 690 771 770 
628 3 3 0 4 690 691 772 771 
629 3 3 0 4 691 692 773 772 
630 3 3 0 4 692 693 774 773 
631 3 3 0 4 693 694 775 774 
632 3 3 0 4 694 695 776 775 
633 3 3 0 4 695 696 777 776 
634 3 3 0 4 696 697 778 777 
635 3 3 0 4 697 698 779 778 
636 3 3 0 4 698 699 780 779 
637 3 3 0 4 699 700 781 780 
638 3 3 0 4 700 701 782 781 
639 3 3 0 4 701 702 783 782 
640 3 3 0 4 702 703 784 783 
641 3 3 0 4 703 704 785 784 
642 3 3 0 4 704 705 786 785 
643 3 3 0 4 705 706 787 786 
644 3 3 0 4 706 707 788 787 
645 3 3 0 4 707 708 789 788 
646 3 3 0 4 708 709 790 789 
647 3 3 0 4 709 710 791 790 
648 3 3 0 4 710 711 792 791 
649 3 3 0 4 711 712 793 792 
650 3 3 0 4 712 713 794 793 
651 3 3 0 4 713 714 795 794 
652 3 3 0 4 714 715 796 795 
653 3 3 0 4 715 716 797 796 
654 3 3 0 4 716 717 798 797 
655 3 3 0 4 717 718 799 798 
656 3 3 0 4 718 719 800 799 
657 3 3 0 4 719 720 801 800 
658 3 3 0 4 720 721 802 801 
659 3 3 0 4 721 722 803 802 
660 3 3 0 4 722 723 804 803 
661 3 3 0 4 723 724 805 804 
662 3 3 0 4 724 725 806 805 
663 3 3 0 4 725 726 807 806 
664 3 3 0 4 726 727 808 807 
665 3 3 0 4 727 728 809 808 
666 3 3 0 4 728 729 810 809 
667 3 3 0 4 730 731 812 811 
668 3 3 0 4 731 732 813 812 
669 3 3 0 4 732 733 814 813 
670 3 3 0 4 733 734 815 814 
671 3 3 0 4 734 735 816 815 
672 3 3 0 4 735 736 817 816 
673 3 3 0 4 736 737 818 817 
674 3 3 0 4 737 738 819 818 
675 3 3 0 4 738 739 820 819 
676 3 3 0 4 739 740 821 820 
677 3 3 0 4 740 741 822 821 
678 3 3 0 4 741 742 823 822 
679 3 3 0 4 742 743 824 823 
680 3 3 0 4 743 744 825 824 
681 3 3 0 4 744 745 826 825 
682 3 3 0 4 745 746 827 826 
683 3 3 0 4 746 747 828 827 
684 3 3 0 4 747 748 829 828 
685 3 3 0 4 754 755 836 835 
686 3 3 0 4 755 756 837 836 
687 3 3 0 4 756 757 838 837 
688 3 3 0 4 757 758 839 838 
689 3 3 0 4 758 759 840 839 
690 3 3 0 4 759 760 841 840 
691 3 3 0 4 760 761 842 841 
692 3 3 0 4 761 762 843 842 
693 3 3 0 4 762 763 844 843 
694 3 3 0 4 763 764 845 844 
695 3 3 0 4 764 765 846 845 
696 3 3 0 4 765 766 847 846 
697 3 3 0 4 766 767 848 847 
698 3 3 0 4 767 768 849 848 
699 3 3 0 4 768 769 850 849 
700 3 3 0 4 769 770 851 850 
701 3 3 0 4 770 771 852 851 
702 3 3 0 4 771 772 853 852 
703 3 3 0 4 772 773 854 853 
704 3 3 0 4 773 774 855 854 
705 3 3 0 4 774 775 856 855 
706 3 3 0 4 775 776 857 856 
707 3 3 0 4 776 777 858 857 
708 3 3 0 4 777 778 859 858 
709 3 3 0 4 778 779 860 859 
710 3 3 0 4 779 780 861 860 
711 3 3 0 4 780 781 862 861 
712 3 3 0 4 781 782 863 862 
713 3 3 0 4 782 783 864 863 
714 3 3 0 4 783 784 865 864 
715 3 3 0 4 784 785 866 865 
716 3 3 0 4 785 786 867 866 
717 3 3 0 4 786 787 868 867 
718 3 3 0 4 787 788 869 868 
719 3 3 0 4 788 789 870 869 
720 3 3 0 4 789 790 871 870 
721 3 3 0 4 790 791 872 871 
722 3 3 0 4 791 792 873 872 
723 3 3 0 4 792 793 874 873 
724 3 3 0 4 793 794 875 874 
725 3 3 0 4 794 795 876 875 
726 3 3 0 4 795 796 877 876 
727 3 3 0 4 796 797 878 877 
728 3 3 0 4 797 798 879 878 
729 3 3 0 4 798 799 880 879 
730 3 3 0 4 799 800 881 880 
731 3 3 0 4 800 801 882 881 
732 3 3 0 4 801 802 883 882 
733 3 3 0 4 802 803 884 883 
734 3 3 0 4 803 804 885 884 
735 3 3 0 4 804 805 886 885 
736 3 3 0 4 805 806 887 886 
737 3 3 0 4 806 807 888 887 
738 3 3 0 4 807 808 889 888 
739 3 3 0 4 808 809 890 889 
740 3 3 0 4 809 810 891 890 
741 3 3 0 4 811 812 893 892 
742 3 3 0 4 812 813 894 893 
743 3 3 0 4 813 814 895 894 
744 3 3 0 4 814 815 896 895 
745 3 3 0 4 815 816 897 896 
746 3 3 0 4 816 817 898 897 
747 3 3 0 4 817 818 899 898 
748 3 3 0 4 818 819 900 899 
749 3 3 0 4 819 820 901 900 
750 3 3 0 4 820 821 902 901 
751 3 3 0 4 821 822 903 902 
752 3 3 0 4 822 823 904 903 
753 3 3 0 4 823 824 905 904 
754 3 3 0 4 824 825 906 905 
755 3 3 0 4 825 826 907 906 
756 3 3 0 4 826 827 908 907 
757 3 3 0 4 827 828 909 908 
758 3 3 0 4 828 829 910 909 
759 3 3 0 4 829 830 911 910 
760 3 3 0 4 830 831 912 911 
761 3 3 0 4 831 832 913 912 
762 3 3 0 4 832 833 914 913 
763 3 3 0 4 833 834 915 914 
764 3 3 0 4 834 835 916 915 
765 3 3 0 4 835 836 917 916 
766 3 3 0 4 836 837 918 917 
767 3 3 0 4 837 838 919 918 
768 3 3 0 4 838 839 920 919 
769 3 3 0 4 839 840 921 920 
770 3 3 0 4 840 841 922 921 
771 3 3 0 4 841 842 923 922 
772 3 3 0 4 842 843 924 923 
773 3 3 0 4 843 844 925 924 
774 3 3 0 4 844 845 926 925 
775 3 3 0 4 845 846 927 926 
776 3 3 0 4 846 847 928 927 
777 3 3 0 4 847 848 929 928 
778 3 3 0 4 848 849 930 929 
779 3 3 0 4 849 850 931 930 
780 3 3 0 4 850 851 932 931 
781 3 3 0 4 851 852 933 932 
782 3 3 0 4 852 853 934 933 
783 3 3 0 4 853 854 935 934 
784 3 3 0 4 854 855 936 935 
785 3 3 0 4 855 856 937 936 
786 3 3 0 4 856 857 938 937 
787 3 3 0 4 857 858 939 938 
788 3 3 0 4 858 859 940 939 
789 3 3 0 4 859 860 941 940 
790 3 3 0 4 860 861 942 941 
791 3 3 0 4 861 862 943 942 
792 3 3 0 4 862 863 944 943 
793 3 3 0 4 863 864 945 944 
794 3 3 0 4 864 865 946 945 
795 3 3 0 4 865 866 947 946 
796 3 3 0 4 866 867 948 947 
797 3 3 0 4 867 868 949 948 
798 3 3 0 4 868 869 950 949 
799 3 3 0 4 869 870 951 950 
800 3 3 0 4 870 871 952 951 
801 3 3 0 4 871 872 953 952 
802 3 3 0 4 872 873 954 953 
803 3 3 0 4 873 874 955 954 
804 3 3 0 4 874 875 956 955 
805 3 3 0 4 875 876 957 956 
806 3 3 0 4 876 877 958 957 
807 3 3 0 4 877 878 959 958 
808 3 3 0 4 878 879 960 959 
809 3 3 0 4 879 880 961 960 
810 3 3 0 4 880 881 962 961 
811 3 3 0 4 881 882 963 962 
812 3 3 0 4 882 883 964 963 
813 3 3 0 4 883 884 965 964 
814 3 3 0 4 884 885 966 965 
815 3 3 0 4 885 886 967 966 
816 3 3 0 4 886 887 968 967 
817 3 3 0 4 887 888 969 968 
818 3 3 0 4 888 889 970 969 
819 3 3 0 4 889 890 971 970 
820 3 3 0 4 890 891 972 971 
821 3 3 0 4 892 893 974 973 
822 3 3 0 4 893 894 975 974 
823 3 3 0 4 894 895 976 975 
824 3 3 0 4 895 896 977 976 
825 3 3 0 4 896 897 978 977 
826 3 3 0 4 897 898 979 978 
827 3 3 0 4 898 899 980 979 
828 3 3 0 4 899 900 981 980 
829 3 3 0 4 900 901 982 981 
830 3 3 0 4 901 902 983 982 
831 3 3 0 4 902 903 984 983 
832 3 3 0 4 903 904 985 984 
833 3 3 0 4 904 905 986 985 
834 3 3 0 4 905 906 987 986 
835 3 3 0 4 906 907 988 987 
836 3 3 0 4 907 908 989 988 
837 3 3 0 4 908 909 990 989 
838 3 3 0 4 909 910 991 990 
839 3 3 0 4 910 911 992 991 
840 3 3 0 4 911 912 993 992 
841 3 3 0 4 912 913 994 993 
842 3 3 0 4 913 914 995 994 
843 3 3 0 4 914 915 996 995 
844 3 3 0 4 915 916 997 996 
845 3 3 0 4 916 917 998 997 
846 3 3 0 4 917 918 999 998 
847 3 3 0 4 918 919 1000 999 
848 3 3 0 4 919 920 1001 1000 
849 3 3 0 4 920 921 1002 1001 
850 3 3 0 4 921 922 1003 1002 
851 3 3 0 4 922 923 1004 1003 
852 3 3 0 4 923 924 1005 1004 
853 3 3 0 4 924 925 1006 1005 
854 3 3 0 4 925 926 1007 1006 
855 3 3 0 4 926 927 1008 1007 
856 3 3 0 4 927 928 1009 1008 
857 3 3 0 4 928 929 1010 1009 
858 3 3 0 4 929 930 1011 1010 
859 3 3 0 4 930 931 1012 1011 
860 3 3 0 4 931 932 1013 1012 
861 3 3 0 4 932 933 1014 1013 
862 3 3 0 4 933 934 1015 1014 
863 3 3 0 4 934 935 1016 1015 
864 3 3 0 4 935 936 1017 1016 
865 3 3 0 4 936 937 1018 1017 
866 3 3 0 4 937 938 1019 1018 
867 3 3 0 4 938 939 1020 1019 
868 3 3 0 4 939 940 1021 1020 
869 3 3 0 4 940 941 1022 1021 
870 3 3 0 4 941 942 1023 1022 
871 3 3 0 4 942 943 1024 1023 
872 3 3 0 4 943 944 1025 1024 
873 3 3 0 4 944 945 1026 1025 
874 3 3 0 4 945 946 1027 1026 
875 3 3 0 4 946 947 1028 1027 
876 3 3 0 4 947 948 1029 1028 
877 3 3 0 4 948 949 1030 1029 
878 3 3 0 4 949 950 1031 1030 
879 3 3 0 4 950 951 1032 1031 
880 3 3 0 4 951 952 1033 1032 
881 3 3 0 4 952 953 1034 1033 
882 3 3 0 4 953 954 1035 1034 
883 3 3 0 4 954 955 1036 1035 
884 3 3 0 4 955 956 1037 1036 
885 3 3 0 4 956 957 1038 1037 
886 3 3 0 4 957 958 1039 1038 
887 3 3 0 4 958 959 1040 1039 
888 3 3 0 4 959 960 1041 1040 
889 3 3 0 4 960 961 1042 1041 
890 3 3 0 4 961 962 1043 1042 
891 3 3 0 4 962 963 1044 1043 
892 3 3 0 4 963 964 1045 1044 
893 3 3 0 4 964 965 1046 1045 
894 3 3 0 4 965 966 1047 1046 
895 3 3 0 4 966 967 1048 1047 
896 3 3 0 4 967 968 1049 1048 
897 3 3 0 4 968 969 1050 1049 
898 3 3 0 4 969 970 1051 1050 
899 3 3 0 4 970 971 1052 1051 
900 3 3 0 4 971 972 1053 1052 
901 3 3 0 4 973 974 1055 1054 
902 3 3 0 4 974 975 1056 1055 
903 3 3 0 4 975 976 1057 1056 
904 3 3 0 4 976 977 1058 1057 
905 3 3 0 4 977 978 1059 1058 
906 3 3 0 4 978 979 1060 1059 
907 3 3 0 4 979 980 1061 1060 
908 3 3 0 4 980 981 1062 1061 
909 3 3 0 4 981 982 1063 1062 
910 3 3 0 4 982 983 1064 1063 
911 3 3 0 4 983 984 1065 1064 
912 3 3 0 4 984 985 1066 1065 
913 3 3 0 4 985 986 1067 1066 
914 3 3 0 4 986 987 1068 1067 
915 3 3 0 4 987 988 1069 1068 
916 3 3 0 4 988 989 1070 1069 
917 3 3 0 4 989 990 1071 1070 
918 3 3 0 4 990 991 1072 1071 
919 3 3 0 4 991 992 1073 1072 
920 3 3 0 4 992 993 1074 1073 
921 3 3 0 4 993 994 1075 1074 
922 3 3 0 4 994 995 1076 1075 
923 3 3 0 4 995 996 1077 1076 
924 3 3 0 4 996 997 1078 1077 
925 3 3 0 4 997 998 1079 1078 
926 3 3 0 4 998 999 1080 1079 
927 3 3 0 4 999 1000 1081 1080 
928 3 3 0 4 1000 1001 1082 1081 
929 3 3 0 4 1001 1002 1083 1082 
930 3 3 0 4 1002 1003 1084 1083 
931 3 3 0 4 1003 1004 1085 1084 
932 3 3 0 4 1004 1005 1086 1085 
933 3 3 0 4 1005 1006 1087 1086 
934 3 3 0 4 1006 1007 1088 1087 
935 3 3 0 4 1007 1008 1089 1088 
936 3 3 0 4 1008 1009 1090 1089 
937 3 3 0 4 1009 1010 1091 1090 
938 3 3 0 4 1010 1011 1092 1091 
939 3 3 0 4 1011 1012 1093 1092 
940 3 3 0 4 1012 1013 1094 1093 
941 3 3 0 4 1013 1014 1095 1094 
942 3 3 0 4 1014 1015 1096 1095 
943 3 3 0 4 1015 1016 1097 1096 
944 3 3 0 4 1016 1017 1098 1097 
945 3 3 0 4 1017 1018 1099 1098 
946 3 3 0 4 1018 1019 1100 1099 
947 3 3 0 4 1019 1020 1101 1100 
948 3 3 0 4 1020 1021 1102 1101 
949 3 3 0 4 1021 1022 1103 1102 
950 3 3 0 4 1022 1023 1104 1103 
951 3 3 0 4 1023 1024 1105 1104 
952 3 3 0 4 1024 1025 1106 1105 
953 3 3 0 4 1025 1026 1107 1106 
954 3 3 0 4 1026 1027 1108 1107 
955 3 3 0 4 1027 1028 1109 1108 
956 3 3 0 4 1028 1029 1110 1109 
957 3 3 0 4 1029 1030 1111 1110 
958 3 3 0 4 1030 1031 1112 1111 
959 3 3 0 4 1031 1032 1113 1112 
960 3 3 0 4 1032 1033 1114 1113 
961 3 3 0 4 1033 1034 1115 1114 
962 3 3 0 4 1034 1035 1116 1115 
963 3 3 0 4 1035 1036 1117 1116 
964 3 3 0 4 1036 1037 1118 1117 
965 3 3 0 4 1037 1038 1119 1118 
966 3 3 0 4 1038 1039 1120 1119 
967 3 3 0 4 1039 1040 1121 1120 
968 3 3 0 4 1040 1041 1122 1121 
969 3 3 0 4 1041 1042 1123 1122 
970 3 3 0 4 1042 1043 1124 1123 
971 3 3 0 4 1043 1044 1125 1124 
972 3 3 0 4 1044 1045 1126 1125 
973 3 3 0 4 1045 1046 1127 1126 
974 3 3 0 4 1046 1047 1128 1127 
975 3 3 0 4 1047 1048 1129 1128 
976 3 3 0 4 1048 1049 1130 1129 
977 3 3 0 4 1049 1050 1131 1130 
978 3 3 0 4 1050 1051 1132 1131 
979 3 3 0 4 1051 1052 1133 1132 
980 3 3 0 4 1052 1053 1134 1133 
981 3 3 0 4 1054 1055 1136 1135 
982 3 3 0 4 1055 1056 1137 1136 
983 3 3 0 4 1056 1057 1138 1137 
984 3 3 0 4 1057 1058 1139 1138 
985 3 3 0 4 1058 1059 1140 1139 
986 3 3 0 4 1059 1060 1141 1140 
987 3 3 0 4 1060 1061 1142 1141 
988 3 3 0 4 1061 1062 1143 1142 
989 3 3 0 4 1062 1063 1144 1143 
990 3 3 0 4 1063 1064 1145 1144 
991 3 3 0 4 1064 1065 1146 1145 
992 3 3 0 4 1065 1066 1147 1146 
993 3 3 0 4 1066 1067 1148 1147 
994 3 3 0 4 1067 1068 1149 1148 
995 3 3 0 4 1068 1069 1150 1149 
996 3 3 0 4 1069 1070 1151 1150 
997 3 3 0 4 1070 1071 1152 1151 
998 3 3 0 4 1071 1072 1153 1152 
999 3 3 0 4 1072 1073 1154 1153 
1000 3 3 0 4 1073 1074 1155 1154 
1001 3 3 0 4 1074 1075 1156 1155 
1002 3 3 0 4 1075 1076 1157 1156 
1003 3 3 0 4 1076 1077 1158 1157 
1004 3 3 0 4 1077 1078 1159 1158 
1005 3 3 0 4 1078 1079 1160 1159 
1006 3 3 0 4 1079 1080 1161 1160 
1007 3 3 0 4 1080 1081 1162 1161 
1008 3 3 0 4 1081 1082 1163 1162 
1009 3 3 0 4 1082 1083 1164 1163 
1010 3 3 0 4 1083 1084 1165 1164 
1011 3 3 0 4 1084 1085 1166 1165 
1012 3 3 0 4 1085 1086 1167 1166 
1013 3 3 0 4 1086 1087 1168 1167 
1014 3 3 0 4 1087 1088 1169 1168 
1015 3 3 0 4 1088 1089 1170 1169 
1016 3 3 0 4 1089 1090 1171 1170 
1017 3 3 0 4 1090 1091 1172 1171 
1018 3 3 0 4 1091 1092 1173 1172 
1019 3 3 0 4 1092 1093 1174 1173 
1020 3 3 0 4 1093 1094 1175 1174 
1021 3 3 0 4 1094 1095 1176 1175 
1022 3 3 0 4 1095 1096 1177 1176 
1023 3 3 0 4 1096 1097 1178 1177 
1024 3 3 0 4 1097 1098 1179 1178 
1025 3 3 0 4 1098 1099 1180 1179 
1026 3 3 0 4 1099 1100 1181 1180 
1027 3 3 0 4 1100 1101 1182 1181 
1028 3 3 0 4 1101 1102 1183 1182 
1029 3 3 0 4 1102 1103 1184 1183 
1030 3 3 0 4 1103 1104 1185 1184 
1031 3 3 0 4 1104 1105 1186 1185 
1032 3 3 0 4 1105 1106 1187 1186 
1033 3 3 0 4 1106 1107 1188 1187 
1034 3 3 0 4 1107 1108 1189 1188 
1035 3 3 0 4 1108 1109 1190 1189 
1036 3 3 0 4 1109 1110 1191 1190 
1037 3 3 0 4 1110 1111 1192 1191 
1038 3 3 0 4 1111 1112 1193 1192 
1039 3 3 0 4 1112 1113 1194 1193 
1040 3 3 0 4 1113 1114 1195 1194 
1041 3 3 0 4 1114 1115 1196 1195 
1042 3 3 0 4 1115 1116 1197 1196 
1043 3 3 0 4 1116 1117 1198 1197 
1044 3 3 0 4 1117 1118 1199 1198 
1045 3 3 0 4 1118 1119 1200 1199 
1046 3 3 0 4 1119 1120 1201 1200 
1047 3 3 0 4 1120 1121 1202 1201 
1048 3 3 0 4 1121 1122 1203 1202 
1049 3 3 0 4 1122 1123 1204 1203 
1050 3 3 0 4 1123 1124 1205 1204 
1051 3 3 0 4 1124 1125 1206 1205 
1052 3 3 0 4 1125 1126 1207 1206 
1053 3 3 0 4 1126 1127 1208 1207 
1054 3 3 0 4 1127 1128 1209 1208 
1055 3 3 0 4 1128 1129 1210 1209 
1056 3 3 0 4 1129 1130 1211 1210 
1057 3 3 0 4 1130 1131 1212 1211 
1058 3 3 0 4 1131 1132 1213 1212 
1059 3 3 0 4 1132 1133 1214 1213 
1060 3 3 0 4 1133 1134 1215 1214 
1061 3 3 0 4 1135 1136 1217 1216 
1062 3 3 0 4 1136 1137 1218 1217 
1063 3 3 0 4 1137 1138 1219 1218 
1064 3 3 0 4 1138 1139 1220 1219 
1065 3 3 0 4 1139 1140 1221 1220 
1066 3 3 0 4 1140 1141 1222 1221 
1067 3 3 0 4 1141 1142 1223 1222 
1068 3 3 0 4 1142 1143 1224 1223 
1069 3 3 0 4 1143 1144 1225 1224 
1070 3 3 0 4 1144 1145 1226 1225 
1071 3 3 0 4 1145 1146 1227 1226 
1072 3 3 0 4 1146 1147 1228 1227 
1073 3 3 0 4 1147 1148 1229 1228 
1074 3 3 0 4 1148 1149 1230 1229 
1075 3 3 0 4 1149 1150 1231 1230 
1076 3 3 0 4 1150 1151 1232 1231 
1077 3 3 0 4 1151 1152 1233 1232 
1078 3 3 0 4 1152 1153 1234 1233 
1079 3 3 0 4 1153 1154 1235 1234 
1080 3 3 0 4 1154 1155 1236 1235 
1081 3 3 0 4 1155 1156 1237 1236 
1082 3 3 0 4 1156 1157 1238 1237 
1083 3 3 0 4 1157 1158 1239 1238 
1084 3 3 0 4 1158 1159 1240 1239 
1085 3 3 0 4 1159 1160 1241 1240 
1086 3 3 0 4 1160 1161 1242 1241 
1087 3 3 0 4 1161 1162 1243 1242 
1088 3 3 0 4 1162 1163 1244 1243 
1089 3 3 0 4 1163 1164 1245 1244 
1090 3 3 0 4 1164 1165 1246 1245 
1091 3 3 0 4 1165 1166 1247 1246 
1092 3 3 0 4 1166 1167 1248 1247 
1093 3 3 0 4 1167 1168 1249 1248 
1094 3 3 0 4 1168 1169 1250 1249 
1095 3 3 0 4 1169 1170 1251 1250 
1096 3 3 0 4 1170 1171 1252 1251 
1097 3 3 0 4 1171 1172 1253 1252 
1098 3 3 0 4 1172 1173 1254 1253 
1099 3 3 0 4 1173 1174 1255 1254 
1100 3 3 0 4 1174 1175 1256 1255 
1101 3 3 0 4 1175 1176 1257 1256 
1102 3 3 0 4 1176 1177 1258 1257 
1103 3 3 0 4 1177 1178 1259 1258 
1104 3 3 0 4 1178 1179 1260 1259 
1105 3 3 0 4 1179 1180 1261 1260 
1106 3 3 0 4 1180 1181 1262 1261 
1107 3 3 0 4 1181 1182 1263 1262 
1108 3 3 0 4 1182 1183 1264 1263 
1109 3 3 0 4 1183 1184 1265 1264 
1110 3 3 0 4 1184 1185 1266 1265 
1111 3 3 0 4 1185 1186 1267 1266 
1112 3 3 0 4 1186 1187 1268 1267 
1113 3 3 0 4 1187 1188 1269 1268 
1114 3 3 0 4 1188 1189 1270 1269 
1115 3 3 0 4 1189 1190 1271 1270 
1116 3 3 0 4 1190 1191 1272 1271 
1117 3 3 0 4 1191 1192 1273 1272 
1118 3 3 0 4 1192 1193 1274 1273 
1119 3 3 0 4 1193 1194 1275 1274 
1120 3 3 0 4 1194 1195 1276 1275 
1121 3 3 0 4 1195 1196 1277 1276 
1122 3 3 0 4 1196 1197 1278 1277 
1123 3 3 0 4 1197 1198 1279 1278 
1124 3 3 0 4 1198 1199 1280 1279 
1125 3 3 0 4 1199 1200 1281 1280 
1126 3 3 0 4 1200 1201 1282 1281 
1127 3 3 0 4 1201 1202 1283 1282 
1128 3 3 0 4 1202 1203 1284 1283 
1129 3 3 0 4 1203 1204 1285 1284 
1130 3 3 0 4 1204 1205 1286 1285 
1131 3 3 0 4 1205 1206 1287 1286 
1132 3 3 0 4 1206 1207 1288 1287 
1133 3 3 0 4 1207 1208 1289 1288 
1134 3 3 0 4 1208 1209 1290 1289 
1135 3 3 0 4 1209 1210 1291 1290 
1136 3 3 0 4 1210 1211 1292 1291 
1137 3 3 0 4 1211 1212 1293 1292 
1138 3 3 0 4 1212 1213 1294 1293 
1139 3 3 0 4 1213 1214 1295 1294 
1140 3 3 0 4 1214 1215 1296 1295 
1141 3 3 0 4 1216 1217 1298 1297 
1142 3 3 0 4 1217 1218 1299 1298 
1143 3 3 0 4 1218 1219 1300 1299 
1144 3 3 0 4 1219 1220 1301 1300 
1145 3 3 0 4 1220 1221 1302 1301 
1146 3 3 0 4 1221 1222 1303 1302 
1147 3 3 0 4 1222 1223 1304 1303 
1148 3 3 0 4 1223 1224 1305 1304 
1149 3 3 0 4 1224 1225 1306 1305 
1150 3 3 0 4 1225 1226 1307 1306 
1151 3 3 0 4 1226 1227 1308 1307 
1152 3 3 0 4 1227 1228 1309 1308 
1153 3 3 0 4 1228 1229 1310 1309 
1154 3 3 0 4 1229 1230 1311 1310 
1155 3 3 0 4 1230 1231 1312 1311 
1156 3 3 0 4 1231 1232 1313 1312 
1157 3 3 0 4 1232 1233 1314 1313 
1158 3 3 0 4 1233 1234 1315 1314 
1159 3 3 0 4 1234 1235 1316 1315 
1160 3 3 0 4 1235 1236 1317 1316 
1161 3 3 0 4 1236 1237 1318 1317 
1162 3 3 0 4 1237 1238 1319 1318 
1163 3 3 0 4 1238 1239 1320 1319 
1164 3 3 0 4 1239 1240 1321 1320 
1165 3 3 0 4 1240 1241 1322 1321 
1166 3 3 0 4 1241 1242 1323 1322 
1167 3 3 0 4 1242 1243 1324 1323 
1168 3 3 0 4 1243 1244 1325 1324 
1169 3 3 0 4 1244 1245 1326 1325 
1170 3 3 0 4 1245 1246 1327 1326 
1171 3 3 0 4 1246 1247 1328 1327 
1172 3 3 0 4 1247 1248 1329 1328 
1173 3 3 0 4 1248 1249 1330 1329 
1174 3 3 0 4 1249 1250 1331 1330 
1175 3 3 0 4 1250 1251 1332 1331 
1176 3 3 0 4 1251 1252 1333 1332 
1177 3 3 0 4 1252 1253 1334 1333 
1178 3 3 0 4 1253 1254 1335 1334 
1179 3 3 0 4 1254 1255 1336 1335 
1180 3 3 0 4 1255 1256 1337 1336 
1181 3 3 0 4 1256 1257 1338 1337 
1182 3 3 0 4 1257 1258 1339 1338 
1183 3 3 0 4 1258 1259 1340 1339 
1184 3 3 0 4 1259 1260 1341 1340 
1185 3 3 0 4 1260 1261 1342 1341 
1186 3 3 0 4 1261 1262 1343 1342 
1187 3 3 0 4 1262 1263 1344 1343 
1188 3 3 0 4 1263 1264 1345 1344 
1189 3 3 0 4 1264 1265 1346 1345 
1190 3 3 0 4 1265 1266 1347 1346 
1191 3 3 0 4 1266 1267 1348 1347 
1192 3 3 0 4 1267 1268 1349 1348 
1193 3 3 0 4 1268 1269 1350 1349 
1194 3 3 0 4 1269 1270 1351 1350 
1195 3 3 0 4 1270 1271 1352 1351 
1196 3 3 0 4 1271 1272 1353 1352 
1197 3 3 0 4 1272 1273 1354 1353 
1198 3 3 0 4 1273 1274 1355 1354 
1199 3 3 0 4 1274 1275 1356 1355 
1200 3 3 0 4 1275 1276 1357 1356 
1201 3 3 0 4 1276 1277 1358 1357 
1202 3 3 0 4 1277 1278 1359 1358 
1203 3 3 0 4 1278 1279 1360 1359 
1204 3 3 0 4 1279 1280 1361 1360 
1205 3 3 0 4 1280 1281 1362 1361 
1206 3 3 0 4 1281 1282 1363 1362 
1207 3 3 0 4 1282 1283 1364 1363 
1208 3 3 0 4 1283 1284 1365 1364 
1209 3 3 0 4 1284 1285 1366 1365 
1210 3 3 0 4 1285 1286 1367 1366 
1211 3 3 0 4 1286 1287 1368 1367 
1212 3 3 0 4 1287 1288 1369 1368 
1213 3 3 0 4 1288 1289 1370 1369 
1214 3 3 0 4 1289 1290 1371 1370 
1215 3 3 0 4 1290 1291 1372 1371 
1216 3 3 0 4 1291 1292 1373 1372 
1217 3 3 0 4 1292 1293 1374 1373 
1218 3 3 0 4 1293 1294 1375 1374 
1219 3 3 0 4 1294 1295 1376 1375 
1220 3 3 0 4 1295 1296 1377 1376 
1221 3 3 0 4 1297 1298 1379 1378 
1222 3 3 0 4 1298 1299 1380 1379 
1223 3 3 0 4 1299 1300 1381 1380 
1224 3 3 0 4 1300 1301 1382 1381 
1225 3 3 0 4 1301 1302 1383 1382 
1226 3 3 0 4 1302 1303 1384 1383 
1227 3 3 0 4 1303 1304 1385 1384 
1228 3 3 0 4 1304 1305 1386 1385 
1229 3 3 0 4 1305 1306 1387 1386 
1230 3 3 0 4 1306 1307 1388 1387 
1231 3 3 0 4 1307 1308 1389 1388 
1232 3 3 0 4 1308 1309 1390 1389 
1233 3 3 0 4 1309 1310 1391 1390 
1234 3 3 0 4 1310 1311 1392 1391 
1235 3 3 0 4 1311 1312 1393 1392 
1236 3 3 0 4 1312 1313 1394 1393 
1237 3 3 0 4 1313 1314 1395 1394 
1238 3 3 0 4 1314 1315 1396 1395 
1239 3 3 0 4 1315 1316 1397 1396 
1240 3 3 0 4 1316 1317 1398 1397 
1241 3 3 0 4 1317 1318 1399 1398 
1242 3 3 0 4 1318 1319 1400 1399 
1243 3 3 0 4 1319 1320 1401 1400 
1244 3 3 0 4 1320 1321 1402 1401 
1245 3 3 0 4 1321 1322 1403 1402 
1246 3 3 0 4 1322 1323 1404 1403 
1247 3 3 0 4 1323 1324 1405 1404 
1248 3 3 0 4 1324 1325 1406 1405 
1249 3 3 0 4 1325 1326 1407 1406 
1250 3 3 0 4 1326 1327 1408 1407 
1251 3 3 0 4 1327 1328 1409 1408 
1252 3 3 0 4 1328 1329 1410 1409 
1253 3 3 0 4 1329 1330 1411 1410 
1254 3 3 0 4 1330 1331 1412 1411 
1255 3 3 0 4 1331 1332 1413 1412 
1256 3 3 0 4 1332 1333 1414 1413 
1257 3 3 0 4 1333 1334 1415 1414 
1258 3 3 0 4 1334 1335 1416 1415 
1259 3 3 0 4 1335 1336 1417 1416 
1260 3 3 0 4 1336 1337 1418 1417 
1261 3 3 0 4 1337 1338 1419 1418 
1262 3 3 0 4 1338 1339 1420 1419 
1263 3 3 0 4 1339 1340 1421 1420 
1264 3 3 0 4 1340 1341 1422 1421 
1265 3 3 0 4 1341 1342 1423 1422 
1266 3 3 0 4 1342 1343 1424 1423 
1267 3 3 0 4 1343 1344 1425 1424 
1268 3 3 0 4 1344 1345 1426 1425 
1269 3 3 0 4 1345 1346 1427 1426 
1270 3 3 0 4 1346 1347 1428 1427 
1271 3 3 0 4 1347 1348 1429 1428 
1272 3 3 0 4 1348 1349 1430 1429 
1273 3 3 0 4 1349 1350 1431 1430 
1274 3 3 0 4 1350 1351 1432 1431 
1275 3 3 0 4 1351 1352 1433 1432 
1276 3 3 0 4 1352 1353 1434 1433 
1277 3 3 0 4 1353 1354 1435 1434 
1278 3 3 0 4 1354 1355 1436 1435 
1279 3 3 0 4 1355 1356 1437 1436 
1280 3 3 0 4 1356 1357 1438 1437 
1281 3 3 0 4 1357 1358 1439 1438 
1282 3 3 0 4 1358 1359 1440 1439 
1283 3 3 0 4 1359 1360 1441 1440 
1284 3 3 0 4 1360 1361 1442 1441 
1285 3 3 0 4 1361 1362 1443 1442 
1286 3 3 0 4 1362 1363 1444 1443 
1287 3 3 0 4 1363 1364 1445 1444 
1288 3 3 0 4 1364 1365 1446 1445 
1289 3 3 0 4 1365 1366 1447 1446 
1290 3 3 0 4 1366 1367 1448 1447 
1291 3 3 0 4 1367 1368 1449 1448 
1292 3 3 0 4 1368 1369 1450 1449 
1293 3 3 0 4 1369 1370 1451 1450 
1294 3 3 0 4 1370 1371 1452 1451 
1295 3 3 0 4 1371 1372 1453 1452 
1296 3 3 0 4 1372 1373 1454 1453 
1297 3 3 0 4 1373 1374 1455 1454 
1298 3 3 0 4 1374 1375 1456 1455 
1299 3 3 0 4 1375 1376 1457 1456 
1300 3 3 0 4 1376 1377 1458 1457 
1301 3 3 0 4 1378 1379 1460 1459 
1302 3 3 0 4 1379 1380 1461 1460 
1303 3 3 0 4 1380 1381 1462 1461 
1304 3 3 0 4 1381 1382 1463 1462 
1305 3 3 0 4 1382 1383 1464 1463 
1306 3 3 0 4 1383 1384 1465 1464 
1307 3 3 0 4 1384 1385 1466 1465 
1308 3 3 0 4 1385 1386 1467 1466 
1309 3 3 0 4 1386 1387 1468 1467 
1310 3 3 0 4 1387 1388 1469 1468 
1311 3 3 0 4 1388 1389 1470 1469 
1312 3 3 0 4 1389 1390 1471 1470 
1313 3 3 0 4 1390 1391 1472 1471 
1314 3 3 0 4 1391 1392 1473 1472 
1315 3 3 0 4 1392 1393 1474 1473 
1316 3 3 0 4 1393 1394 1475 1474 
1317 3 3 0 4 1394 1395 1476 1475 
1318 3 3 0 4 1395 1396 1477 1476 
1319 3 3 0 4 1396 1397 1478 1477 
1320 3 3 0 4 1397 1398 1479 1478 
1321 3 3 0 4 1398 1399 1480 1479 
1322 3 3 0 4 1399 1400 1481 1480 
1323 3 3 0 4 1400 1401 1482 1481 
1324 3 3 0 4 1401 1402 1483 1482 
1325 3 3 0 4 1402 1403 1484 1483 
1326 3 3 0 4 1403 1404 1485 1484 
1327 3 3 0 4 1404 1405 1486 1485 
1328 3 3 0 4 1405 1406 1487 1486 
1329 3 3 0 4 1406 1407 1488 1487 
1330 3 3 0 4 1407 1408 1489 1488 
1331 3 3 0 4 1408 1409 1490 1489 
1332 3 3 0 4 1409 1410 1491 1490 
1333 3 3 0 4 1410 1411 1492 1491 
1334 3 3 0 4 1411 1412 1493 1492 
1335 3 3 0 4 1412 1413 1494 1493 
1336 3 3 0 4 1413 1414 1495 1494 
1337 3 3 0 4 1414 1415 1496 1495 
1338 3 3 0 4 1415 1416 1497 1496 
1339 3 3 0 4 1416 1417 1498 1497 
1340 3 3 0 4 1417 1418 1499 1498 
1341 3 3 0 4 1418 1419 1500 1499 
1342 3 3 0 4 1419 1420 1501 1500 
1343 3 3 0 4 1420 1421 1502 1501 
1344 3 3 0 4 1421 1422 1503 1502 
1345 3 3 0 4 1422 1423 1504 1503 
1346 3 3 0 4 1423 1424 1505 1504 
1347 3 3 0 4 1424 1425 1506 1505 
1348 3 3 0 4 1425 1426 1507 1506 
1349 3 3 0 4 1426 1427 1508 1507 
1350 3 3 0 4 1427 1428 1509 1508 
1351 3 3 0 4 1428 1429 1510 1509 
1352 3 3 0 4 1429 1430 1511 1510 
1353 3 3 0 4 1430 1431 1512 1511 
1354 3 3 0 4 1431 1432 1513 1512 
1355 3 3 0 4 1432 1433 1514 1513 
1356 3 3 0 4 1433 1434 1515 1514 
1357 3 3 0 4 1434 1435 1516 1515 
1358 3 3 0 4 1435 1436 1517 1516 
1359 3 3 0 4 1436 1437 1518 1517 
1360 3 3 0 4 1437 1438 1519 1518 
1361 3 3 0 4 1438 1439 1520 1519 
1362 3 3 0 4 1439 1440 1521 1520 
1363 3 3 0 4 1440 1441 1522 1521 
1364 3 3 0 4 1441 1442 1523 1522 
1365 3 3 0 4 1442 1443 1524 1523 
1366 3 3 0 4 1443 1444 1525 1524 
1367 3 3 0 4 1444 1445 1526 1525 
1368 3 3 0 4 1445 1446 1527 1526 
1369 3 3 0 4 1446 1447 1528 1527 
1370 3 3 0 4 1447 1448 1529 1528 
1371 3 3 0 4 1448 1449 1530 1529 
1372 3 3 0 4 1449 1450 1531 1530 
1373 3 3 0 4 1450 1451 1532 1531 
1374 3 3 0 4 1451 1452 1533 1532 
1375 3 3 0 4 1452 1453 1534 1533 
1376 3 3 0 4 1453 1454 1535 1534 
1377 3 3 0 4 1454 1455 1536 1535 
1378 3 3 0 4 1455 1456 1537 1536 
1379 3 3 0 4 1456 1457 1538 1537 
1380 3 3 0 4 1457 1458 1539 1538 
1381 3 3 0 4 1459 1460 1541 1540 
1382 3 3 0 4 1460 1461 1542 1541 
1383 3 3 0 4 1461 1462 1543 1542 
1384 3 3 0 4 1462 1463 1544 1543 
1385 3 3 0 4 1463 1464 1545 1544 
1386 3 3 0 4 1464 1465 1546 1545 
1387 3 3 0 4 1465 1466 1547 1546 
1388 3 3 0 4 1466 1467 1548 1547 
1389 3 3 0 4 1467 1468 1549 1548 
1390 3 3 0 4 1468 1469 1550 1549 
1391 3 3 0 4 1469 1470 1551 1550 
1392 3 3 0 4 1470 1471 1552 1551 
1393 3 3 0 4 1471 1472 1553 1552 
1394 3 3 0 4 1472 1473 1554 1553 
1395 3 3 0 4 1473 1474 1555 1554 
1396 3 3 0 4 1474 1475 1556 1555 
1397 3 3 0 4 1475 1476 1557 1556 
1398 3 3 0 4 1476 1477 1558 1557 
1399 3 3 0 4 1477 1478 1559 1558 
1400 3 3 0 4 1478 1479 1560 1559 
1401 3 3 0 4 1479 1480 1561 1560 
1402 3 3 0 4 1480 1481 1562 1561 
1403 3 3 0 4 1481 1482 1563 1562 
1404 3 3 0 4 1482 1483 1564 1563 
1405 3 3 0 4 1483 1484 1565 1564 
1406 3 3 0 4 1484 1485 1566 1565 
1407 3 3 0 4 1485 1486 1567 1566 
1408 3 3 0 4 1486 1487 1568 1567 
1409 3 3 0 4 1487 1488 1569 1568 
1410 3 3 0 4 1488 1489 1570 1569 
1411 3 3 0 4 1489 1490 1571 1570 
1412 3 3 0 4 1490 1491 1572 1571 
1413 3 3 0 4 1491 1492 1573 1572 
1414 3 3 0 4 1492 1493 1574 1573 
1415 3 3 0 4 1493 1494 1575 1574 
1416 3 3 0 4 1494 1495 1576 1575 
1417 3 3 0 4 1495 1496 1577 1576 
1418 3 3 0 4 1496 1497 1578 1577 
1419 3 3 0 4 1497 1498 1579 1578 
1420 3 3 0 4 1498 1499 1580 1579 
1421 3 3 0 4 1499 1500 1581 1580 
1422 3 3 0 4 1500 1501 1582 1581 
1423 3 3 0 4 1501 1502 1583 1582 
1424 3 3 0 4 1502 1503 1584 1583 
1425 3 3 0 4 1503 1504 1585 1584 
1426 3 3 0 4 1504 1505 1586 1585 
1427 3 3 0 4 1505 1506 1587 1586 
1428 3 3 0 4 1506 1507 1588 1587 
1429 3 3 0 4 1507 1508 1589 1588 
1430 3 3 0 4 1508 1509 1590 1589 
1431 3 3 0 4 1509 1510 1591 1590 
1432 3 3 0 4 1510 1511 1592 1591 
1433 3 3 0 4 1511 1512 1593 1592 
1434 3 3 0 4 1512 1513 1594 1593 
1435 3 3 0 4 1513 1514 1595 1594 
1436 3 3 0 4 1514 1515 1596 1595 
1437 3 3 0 4 1515 1516 1597 1596 
1438 3 3 0 4 1516 1517 1598 1597 
1439 3 3 0 4 1517 1518 1599 1598 
1440 3 3 0 4 1518 1519 1600 1599 
1441 3 3 0 4 1519 1520 1601 1600 
1442 3 3 0 4 1520 1521 1602 1601 
1443 3 3 0 4 1521 1522 1603 1602 
1444 3 3 0 4 1522 1523 1604 1603 
1445 3 3 0 4 1523 1524 1605 1604 
1446 3 3 0 4 1524 1525 1606 1605 
1447 3 3 0 4 1525 1526 1607 1606 
1448 3 3 0 4 1526 1527 1608 1607 
1449 3 3 0 4 1527 1528 1609 1608 
1450 3 3 0 4 1528 1529 1610 1609 
1451 3 3 0 4 1529 1530 1611 1610 
1452 3 3 0 4 1530 1531 1612 1611 
1453 3 3 0 4 1531 1532 1613 1612 
1454 3 3 0 4 1532 1533 1614 1613 
1455 3 3 0 4 1533 1534 1615 1614 
1456 3 3 0 4 1534 1535 1616 1615 
1457 3 3 0 4 1535 1536 1617 1616 
1458 3 3 0 4 1536 1537 1618 1617 
1459 3 3 0 4 1537 1538 1619 1618 
1460 3 3 0 4 1538 1539 1620 1619 
1461 3 3 0 4 1540 1541 1622 1621 
1462 3 3 0 4 1541 1542 1623 1622 
1463 3 3 0 4 1542 1543 1624 1623 
1464 3 3 0 4 1543 1544 1625 1624 
1465 3 3 0 4 1544 1545 1626 1625 
1466 3 3 0 4 1545 1546 1627 1626 
1467 3 3 0 4 1546 1547 1628 1627 
1468 3 3 0 4 1547 1548 1629 1628 
1469 3 3 0 4 1548 1549 1630 1629 
1470 3 3 0 4 1549 1550 1631 1630 
1471 3 3 0 4 1550 1551 1632 1631 
1472 3 3 0 4 1551 1552 1633 1632 
1473 3 3 0 4 1552 1553 1634 1633 
1474 3 3 0 4 1553 1554 1635 1634 
1475 3 3 0 4 1554 1555 1636 1635 
1476 3 3 0 4 1555 1556 1637 1636 
1477 3 3 0 4 1556 1557 1638 1637 
1478 3 3 0 4 1557 1558 1639 1638 
1479 3 3 0 4 1558 1559 1640 1639 
1480 3 3 0 4 1559 1560 1641 1640 
1481 3 3 0 4 1560 1561 1642 1641 
1482 3 3 0 4 1561 1562 1643 1642 
1483 3 3 0 4 1562 1563 1644 1643 
1484 3 3 0 4 1563 1564 1645 1644 
1485 3 3 0 4 1564 1565 1646 1645 
1486 3 3 0 4 1565 1566 1647 1646 
1487 3 3 0 4 1566 1567 1648 1647 
1488 3 3 0 4 1567 1568 1649 1648 
1489 3 3 0 4 1568 1569 1650 1649 
1490 3 3 0 4 1569 1570 1651 1650 
1491 3 3 0 4 1570 1571 1652 1651 
1492 3 3 0 4 1571 1572 1653 1652 
1493 3 3 0 4 1572 1573 1654 1653 
1494 3 3 0 4 1573 1574 1655 1654 
1495 3 3 0 4 1574 1575 1656 1655 
1496 3 3 0 4 1575 1576 1657 1656 
1497 3 3 0 4 1576 1577 1658 1657 
1498 3 3 0 4 1577 1578 1659 1658 
1499 3 3 0 4 1578 1579 1660 1659 
1500 3 3 0 4 1579 1580 1661 1660 
1501 3 3 0 4 1580 1581 1662 1661 
1502 3 3 0 4 1581 1582 1663 1662 
1503 3 3 0 4 1582 1583 1664 1663 
1504 3 3 0 4 1583 1584 1665 1664 
1505 3 3 0 4 1584 1585 1666 1665 
1506 3 3 0 4 1585 1586 1667 1666 
1507 3 3 0 4 1586 1587 1668 1667 
1508 3 3 0 4 1587 1588 1669 1668 
1509 3 3 0 4 1588 1589 1670 1669 
1510 3 3 0 4 1589 1590 1671 1670 
1511 3 3 0 4 1590 1591 1672 1671 
1512 3 3 0 4 1591 1592 1673 1672 
1513 3 3 0 4 1592 1593 1674 1673 
1514 3 3 0 4 1593 1594 1675 1674 
1515 3 3 0 4 1594 1595 1676 1675 
1516 3 3 0 4 1595 1596 1677 1676 
1517 3 3 0 4 1596 1597 1678 1677 
1518 3 3 0 4 1597 1598 1679 1678 
1519 3 3 0 4 1598 1599 1680 1679 
1520 3 3 0 4 1599 1600 1681 1680 
1521 3 3 0 4 1600 1601 1682 1681 
1522 3 3 0 4 1601 1602 1683 1682 
1523 3 3 0 4 1602 1603 1684 1683 
1524 3 3 0 4 1603 1604 1685 1684 
1525 3 3 0 4 1604 1605 1686 1685 
1526 3 3 0 4 1605 1606 1687 1686 
1527 3 3 0 4 1606 1607 1688 1687 
1528 3 3 0 4 1607 1608 1689 1688 
1529 3 3 0 4 1608 1609 1690 1689 
1530 3 3 0 4 1609 1610 1691 1690 
1531 3 3 0 4 1610 1611 1692 1691 
1532 3 3 0 4 1611 1612 1693 1692 
1533 3 3 0 4 1612 1613 1694 1693 
1534 3 3 0 4 1613 1614 1695 1694 
1535 3 3 0 4 1614 1615 1696 1695 
1536 3 3 0 4 1615 1616 1697 1696 
1537 3 3 0 4 1616 1617 1698 1697 
1538 3 3 0 4 1617 1618 1699 1698 
1539 3 3 0 4 1618 1619 1700 1699 
1540 3 3 0 4 1619 1620 1701 1700 
1541 3 3 0 4 19 1702 1838 1703 
1542 3 3 0 4 1702 20 1705 1838 
1543 3 3 0 4 1703 1838 1715 100 
1544 3 3 0 4 1838 1705 101 1715 
1545 3 3 0 4 20 1704 1839 1705 
1546 3 3 0 4 1704 21 1707 1839 
1547 3 3 0 4 1705 1839 1717 101 
1548 3 3 0 4 1839 1707 102 1717 
1549 3 3 0 4 21 1706 1840 1707 
1550 3 3 0 4 1706 22 1709 1840 
1551 3 3 0 4 1707 1840 1719 102 
1552 3 3 0 4 1840 1709 103 1719 
1553 3 3 0 4 22 1708 1841 1709 
1554 3 3 0 4 1708 23 1711 1841 
1555 3 3 0 4 1709 1841 1721 103 
1556 3 3 0 4 1841 1711 104 1721 
1557 3 3 0 4 23 1710 1842 1711 
1558 3 3 0 4 1710 24 1713 1842 
1559 3 3 0 4 1711 1842 1723 104 
1560 3 3 0 4 1842 1713 105 1723 
1561 3 3 0 4 24 1712 1843 1713 
1562 3 3 0 4 1712 25 1714 1843 
1563 3 3 0 4 1713 1843 1725 105 
1564 3 3 0 4 1843 1714 106 1725 
1565 3 3 0 4 100 1715 1844 1716 
1566 3 3 0 4 1715 101 1718 1844 
1567 3 3 0 4 1716 1844 1728 181 
1568 3 3 0 4 1844 1718 182 1728 
1569 3 3 0 4 101 1717 1845 1718 
1570 3 3 0 4 1717 102 1720 1845 
1571 3 3 0 4 1718 1845 1730 182 
1572 3 3 0 4 1845 1720 183 1730 
1573 3 3 0 4 102 1719 1846 1720 
1574 3 3 0 4 1719 103 1722 1846 
1575 3 3 0 4 1720 1846 1732 183 
1576 3 3 0 4 1846 1722 184 1732 
1577 3 3 0 4 103 1721 1847 1722 
1578 3 3 0 4 1721 104 1724 1847 
1579 3 3 0 4 1722 1847 1734 184 
1580 3 3 0 4 1847 1724 185 1734 
1581 3 3 0 4 104 1723 1848 1724 
1582 3 3 0 4 1723 105 1726 1848 
1583 3 3 0 4 1724 1848 1736 185 
1584 3 3 0 4 1848 1726 186 1736 
1585 3 3 0 4 105 1725 1849 1726 
1586 3 3 0 4 1725 106 1727 1849 
1587 3 3 0 4 1726 1849 1738 186 
1588 3 3 0 4 1849 1727 187 1738 
1589 3 3 0 4 181 1728 1850 1729 
1590 3 3 0 4 1728 182 1731 1850 
1591 3 3 0 4 1729 1850 1741 262 
1592 3 3 0 4 1850 1731 263 1741 
1593 3 3 0 4 182 1730 1851 1731 
1594 3 3 0 4 1730 183 1733 1851 
1595 3 3 0 4 1731 1851 1743 263 
1596 3 3 0 4 1851 1733 264 1743 
1597 3 3 0 4 183 1732 1852 1733 
1598 3 3 0 4 1732 184 1735 1852 
1599 3 3 0 4 1733 1852 1745 264 
1600 3 3 0 4 1852 1735 265 1745 
1601 3 3 0 4 184 1734 1853 1735 
1602 3 3 0 4 1734 185 1737 1853 
1603 3 3 0 4 1735 1853 1747 265 
1604 3 3 0 4 1853 1737 266 1747 
1605 3 3 0 4 185 1736 1854 1737 
1606 3 3 0 4 1736 186 1739 1854 
1607 3 3 0 4 1737 1854 1749 266 
1608 3 3 0 4 1854 1739 267 1749 
1609 3 3 0 4 186 1738 1855 1739 
1610 3 3 0 4 1738 187 1740 1855 
1611 3 3 0 4 1739 1855 1751 267 
1612 3 3 0 4 1855 1740 268 1751 
1613 3 3 0 4 262 1741 1856 1742 
1614 3 3 0 4 1741 263 1744 1856 
1615 3 3 0 4 1742 1856 1754 343 
1616 3 3 0 4 1856 1744 344 1754 
1617 3 3 0 4 263 1743 1857 1744 
1618 3 3 0 4 1743 264 1746 1857 
1619 3 3 0 4 1744 1857 1756 344 
1620 3 3 0 4 1857 1746 345 1756 
1621 3 3 0 4 264 1745 1858 1746 
1622 3 3 0 4 1745 265 1748 1858 
1623 3 3 0 4 1746 1858 1758 345 
1624 3 3 0 4 1858 1748 346 1758 
1625 3 3 0 4 265 1747 1859 1748 
1626 3 3 0 4 1747 266 1750 1859 
1627 3 3 0 4 1748 1859 1760 346 
1628 3 3 0 4 1859 1750 347 1760 
1629 3 3 0 4 266 1749 1860 1750 
1630 3 3 0 4 1749 267 1752 1860 
1631 3 3 0 4 1750 1860 1762 347 
1632 3 3 0 4 1860 1752 348 1762 
1633 3 3 0 4 267 1751 1861 1752 
1634 3 3 0 4 1751 268 1753 1861 
1635 3 3 0 4 1752 1861 1764 348 
1636 3 3 0 4 1861 1753 349 1764 
1637 3 3 0 4 343 1754 1862 1755 
1638 3 3 0 4 1754 344 1757 1862 
1639 3 3 0 4 1755 1862 1767 424 
1640 3 3 0 4 1862 1757 425 1767 
1641 3 3 0 4 344 1756 1863 1757 
1642 3 3 0 4 1756 345 1759 1863 
1643 3 3 0 4 1757 1863 1769 425 
1644 3 3 0 4 1863 1759 426 1769 
1645 3 3 0 4 345 1758 1864 1759 
1646 3 3 0 4 1758 346 1761 1864 
1647 3 3 0 4 1759 1864 1771 426 
1648 3 3 0 4 1864 1761 427 1771 
1649 3 3 0 4 346 1760 1865 1761 
1650 3 3 0 4 1760 347 1763 1865 
1651 3 3 0 4 1761 1865 1773 427 
1652 3 3 0 4 1865 1763 428 1773 
1653 3 3 0 4 347 1762 1866 1763 
1654 3 3 0 4 1762 348 1765 1866 
1655 3 3 0 4 1763 1866 1775 428 
1656 3 3 0 4 1866 1765 429 1775 
1657 3 3 0 4 348 1764 1867 1765 
1658 3 3 0 4 1764 349 1766 1867 
1659 3 3 0 4 1765 1867 1777 429 
1660 3 3 0 4 1867 1766 430 1777 
1661 3 3 0 4 424 1767 1868 1768 
1662 3 3 0 4 1767 425 1770 1868 
1663 3 3 0 4 1768 1868 1780 505 
1664 3 3 0 4 1868 1770 506 1780 
1665 3 3 0 4 425 1769 1869 1770 
1666 3 3 0 4 1769 426 1772 1869 
1667 3 3 0 4 1770 1869 1782 506 
1668 3 3 0 4 1869 1772 507 1782 
1669 3 3 0 4 426 1771 1870 1772 
1670 3 3 0 4 1771 427 1774 1870 
1671 3 3 0 4 1772 1870 1784 507 
1672 3 3 0 4 1870 1774 508 1784 
1673 3 3 0 4 427 1773 1871 1774 
1674 3 3 0 4 1773 428 1776 1871 
1675 3 3 0 4 1774 1871 1786 508 
1676 3 3 0 4 1871 1776 509 1786 
1677 3 3 0 4 428 1775 1872 1776 
1678 3 3 0 4 1775 429 1778 1872 
1679 3 3 0 4 1776 1872 1788 509 
1680 3 3 0 4 1872 1778 510 1788 
1681 3 3 0 4 429 1777 1873 1778 
1682 3 3 0 4 1777 430 1779 1873 
1683 3 3 0 4 1778 1873 1790 510 
1684 3 3 0 4 1873 1779 511 1790 
1685 3 3 0 4 505 1780 1874 1781 
1686 3 3 0 4 1780 506 1783 1874 
1687 3 3 0 4 1781 1874 1793 586 
1688 3 3 0 4 1874 1783 587 1793 
1689 3 3 0 4 506 1782 1875 1783 
1690 3 3 0 4 1782 507 1785 1875 
1691 3 3 0 4 1783 1875 1795 587 
1692 3 3 0 4 1875 1785 588 1795 
1693 3 3 0 4 507 1784 1876 1785 
1694 3 3 0 4 1784 508 1787 1876 
1695 3 3 0 4 1785 1876 1797 588 
1696 3 3 0 4 1876 1787 589 1797 
1697 3 3 0 4 508 1786 1877 1787 
1698 3 3 0 4 1786 509 1789 1877 
1699 3 3 0 4 1787 1877 1799 589 
1700 3 3 0 4 1877 1789 590 1799 
1701 3 3 0 4 509 1788 1878 1789 
1702 3 3 0 4 1788 510 1791 1878 
1703 3 3 0 4 1789 1878 1801 590 
1704 3 3 0 4 1878 1791 591 1801 
1705 3 3 0 4 510 1790 1879 1791 
1706 3 3 0 4 1790 511 1792 1879 
1707 3 3 0 4 1791 1879 1803 591 
1708 3 3 0 4 1879 1792 592 1803 
1709 3 3 0 4 586 1793 1880 1794 
1710 3 3 0 4 1793 587 1796 1880 
1711 3 3 0 4 1794 1880 1806 667 
1712 3 3 0 4 1880 1796 668 1806 
1713 3 3 0 4 587 1795 1881 1796 
1714 3 3 0 4 1795 588 1798 1881 
1715 3 3 0 4 1796 1881 1808 668 
1716 3 3 0 4 1881 1798 669 1808 
1717 3 3 0 4 588 1797 1882 1798 
1718 3 3 0 4 1797 589 1800 1882 
1719 3 3 0 4 1798 1882 1810 669 
1720 3 3 0 4 1882 1800 670 1810 
1721 3 3 0 4 589 1799 1883 1800 
1722 3 3 0 4 1799 590 1802 1883 
1723 3 3 0 4 1800 1883 1812 670 
1724 3 3 0 4 1883 1802 671 1812 
1725 3 3 0 4 590 1801 1884 1802 
1726 3 3 0 4 1801 591 1804 1884 
1727 3 3 0 4 1802 1884 1814 671 
1728 3 3 0 4 1884 1804 672 1814 
1729 3 3 0 4 591 1803 1885 1804 
1730 3 3 0 4 1803 592 1805 1885 
1731 3 3 0 4 1804 1885 1816 672 
1732 3 3 0 4 1885 1805 673 1816 
1733 3 3 0 4 667 1806 1886 1807 
1734 3 3 0 4 1806 668 1809 1886 
1735 3 3 0 4 1807 1886 1819 748 
1736 3 3 0 4 1886 1809 749 1819 
1737 3 3 0 4 668 1808 1887 1809 
1738 3 3 0 4 1808 669 1811 1887 
1739 3 3 0 4 1809 1887 1821 749 
1740 3 3 0 4 1887 1811 750 1821 
1741 3 3 0 4 669 1810 1888 1811 
1742 3 3 0 4 1810 670 1813 1888 
1743 3 3 0 4 1811 1888 1823 750 
1744 3 3 0 4 1888 1813 751 1823 
1745 3 3 0 4 670 1812 1889 1813 
1746 3 3 0 4 1812 671 1815 1889 
1747 3 3 0 4 1813 1889 1825 751 
1748 3 3 0 4 1889 1815 752 1825 
1749 3 3 0 4 671 1814 1890 1815 
1750 3 3 0 4 1814 672 1817 1890 
1751 3 3 0 4 1815 1890 1827 752 
1752 3 3 0 4 1890 1817 753 1827 
1753 3 3 0 4 672 1816 1891 1817 
1754 3 3 0 4 1816 673 1818 1891 
1755 3 3 0 4 1817 1891 1829 753 
1756 3 3 0 4 1891 1818 754 1829 
1757 3 3 0 4 748 1819 1892 1820 
1758 3 3 0 4 1819 749 1822 1892 
1759 3 3 0 4 1820 1892 1832 829 
1760 3 3 0 4 1892 1822 830 1832 
1761 3 3 0 4 749 1821 1893 1822 
1762 3 3 0 4 1821 750 1824 1893 
1763 3 3 0 4 1822 1893 1833 830 
1764 3 3 0 4 1893 1824 831 1833 
1765 3 3 0 4 750 1823 1894 1824 
1766 3 3 0 4 1823 751 1826 1894 
1767 3 3 0 4 1824 1894 1834 831 
1768 3 3 0 4 1894 1826 832 1834 
1769 3 3 0 4 751 1825 1895 1826 
1770 3 3 0 4 1825 752 1828 1895 
1771 3 3 0 4 1826 1895 1835 832 
1772 3 3 0 4 1895 1828 833 1835 
1773 3 3 0 4 752 1827 1896 1828 
1774 3 3 0 4 1827 753 1830 1896 
1775 3 3 0 4 1828 1896 1836 833 
1776 3 3 0 4 1896 1830 834 1836 
1777 3 3 0 4 753 1829 1897 1830 
1778 3 3 0 4 1829 754 1831 1897 
1779 3 3 0 4 1830 1897 1837 834 
1780 3 3 0 4 1897 1831 835 1837 
$ENDELM
