$NOD
27
1  1 0 0
2  1.05 0 0
3  1.1 0 0
4  1 0.05 0
5  1.05 0.05 0
6  1.1 0.05 0
7  1 0.1 0
8  1.05 0.1 0
9  1.1 0.1 0
10  1 0.15 0
11  1.05 0.15 0
12  1.1 0.15 0
13  1 0.2 0
14  1.05 0.2 0
15  1.1 0.2 0
16  1 0.25 0
17  1.05 0.25 0
18  1.1 0.25 0
19  1 0.3 0
20  1.05 0.3 0
21  1.1 0.3 0
22  1 0.35 0
23  1.05 0.35 0
24  1.1 0.35 0
25  1 0.4 0
26  1.05 0.4 0
27  1.1 0.4 0
$ENDNOD
$ELM
16
1 3 3 0 4 1 2 5 4 
2 3 3 0 4 2 3 6 5 
3 3 3 0 4 4 5 8 7 
4 3 3 0 4 5 6 9 8 
5 3 3 0 4 7 8 11 10 
6 3 3 0 4 8 9 12 11 
7 3 3 0 4 10 11 14 13 
8 3 3 0 4 11 12 15 14 
9 3 3 0 4 13 14 17 16 
10 3 3 0 4 14 15 18 17 
11 3 3 0 4 16 17 20 19 
12 3 3 0 4 17 18 21 20 
13 3 3 0 4 19 20 23 22 
14 3 3 0 4 20 21 24 23 
15 3 3 0 4 22 23 26 25 
16 3 3 0 4 23 24 27 26 
$ENDELM
