$MeshFormat
4.1 0 8
$EndMeshFormat
$PhysicalNames
4
0 5 "PBoundary"
1 6 "CFree"
1 7 "CFixed"
2 8 "SDomain"
$EndPhysicalNames
$Entities
4 4 1 0
1 1 0.4 0 1 5 
2 1 0 0 1 5 
3 1.1 0 0 1 5 
4 1.1 0.4 0 1 5 
1 0.9997998999 -0.0002001000999999891 -0.0002001001 1.0002001001 0.4002001001 0.0002001001 1 6 2 1 -2 
2 0.9997998999 -0.0002001001 -0.0002001001 1.1002001001 0.0002001001 0.0002001001 1 7 2 2 -3 
3 1.0997998999 -0.0002001000999999891 -0.0002001001 1.1002001001 0.4002001001 0.0002001001 1 6 2 3 -4 
4 0.9997998999 0.3997998999 -0.0002001001 1.1002001001 0.4002001001 0.0002001001 1 6 2 4 -1 
1 0.9999999000000001 -1.000000000028756e-07 -1e-07 1.1000001 0.4000001 1e-07 1 8 4 -4 -3 -2 -1 
$EndEntities
$Nodes
9 33 1 33
0 1 0 1
1
1 0.4 0
0 2 0 1
2
1 0 0
0 3 0 1
3
1.1 0 0
0 4 0 1
4
1.1 0.4 0
1 1 0 9
5
6
7
8
9
10
11
12
13
1 0.3194354935069857 0
1 0.2394216017111828 0
1 0.1598509835816264 0
1 0.08026661164858925 0
1 0.3597177467534929 0
1 0.2794285476090843 0
1 0.1996362926464046 0
1 0.1200587976151078 0
1 0.04013330582429463 0
1 2 0 1
14
1.05 0 0
1 3 0 9
15
16
17
18
19
20
21
22
23
1.1 0.04036098387345406 0
1.1 0.1207614544023163 0
1.1 0.2005543132095481 0
1.1 0.2800317562858575 0
1.1 0.3598779136051716 0
1.1 0.08072196774690812 0
1.1 0.1608009410577245 0
1.1 0.2403076853613718 0
1.1 0.3197558272103433 0
1 4 0 1
24
1.05 0.4 0
2 1 0 9
25
26
27
28
29
30
31
32
33
1.05 0.3598378570495484 0
1.05 0.319727198195344 0
1.05 0.2797845623880318 0
1.05 0.2399099950471338 0
1.05 0.2000893952610934 0
1.05 0.160260699690236 0
1.05 0.1203496011162299 0
1.05 0.08036262006867587 0
1.05 0.04020713733692324 0
$EndNodes
$Elements
9 48 1 48
0 1 15 1
1 1 
0 2 15 1
2 2 
0 3 15 1
3 3 
0 4 15 1
4 4 
1 1 1 10
5 1 9 
6 9 5 
7 5 10 
8 10 6 
9 6 11 
10 11 7 
11 7 12 
12 12 8 
13 8 13 
14 13 2 
1 2 1 2
15 2 14 
16 14 3 
1 3 1 10
17 3 15 
18 15 20 
19 20 16 
20 16 21 
21 21 17 
22 17 22 
23 22 18 
24 18 23 
25 23 19 
26 19 4 
1 4 1 2
27 4 24 
28 24 1 
2 1 3 20
29 4 24 25 19 
30 19 25 26 23 
31 23 26 27 18 
32 18 27 28 22 
33 22 28 29 17 
34 17 29 30 21 
35 21 30 31 16 
36 16 31 32 20 
37 20 32 33 15 
38 15 33 14 3 
39 24 1 9 25 
40 25 9 5 26 
41 26 5 10 27 
42 27 10 6 28 
43 28 6 11 29 
44 29 11 7 30 
45 30 7 12 31 
46 31 12 8 32 
47 32 8 13 33 
48 33 13 2 14 
$EndElements
