$MeshFormat
4.1 0 8
$EndMeshFormat
$PhysicalNames
4
0 5 "PBoundary"
1 6 "CFixed"
1 7 "CImmersed"
2 8 "VSolid"
$EndPhysicalNames
$Entities
4 4 1 0
1 9.999999999999998 4 0 1 5 
2 9.999999999999998 0 0 1 5 
3 11 0 0 1 5 
4 11 4 0 1 5 
1 9.997999899899998 -0.002000100100000068 -0.0020001001 10.0020001001 4.0020001001 0.0020001001 1 7 2 1 -2 
2 9.997999899899998 -0.0020001001 -0.0020001001 11.0020001001 0.0020001001 0.0020001001 1 6 2 2 -3 
3 10.9979998999 -0.002000100100000068 -0.0020001001 11.0020001001 4.0020001001 0.0020001001 1 7 2 3 -4 
4 9.997999899899998 3.9979998999 -0.0020001001 11.0020001001 4.0020001001 0.0020001001 1 7 2 4 -1 
1 9.999999899999999 -9.999999983634211e-08 -1e-07 11.0000001 4.0000001 1e-07 1 8 4 -4 -3 -2 -1 
$EndEntities
$Nodes
9 297 1 297
0 1 0 1
1
9.999999999999998 4 0
0 2 0 1
2
9.999999999999998 0 0
0 3 0 1
3
11 0 0
0 4 0 1
4
11 4 0
1 1 0 25
5
6
7
8
9
10
11
12
13
14
15
16
17
18
19
20
21
22
23
24
25
26
27
28
29
9.999999999999998 3.694838045688844 0
9.999999999999998 3.3889508280691 0
9.999999999999998 3.076526120483959 0
9.999999999999998 2.761468031019793 0
9.999999999999998 2.449016372945553 0
9.999999999999998 2.143074108027188 0
9.999999999999998 1.840006109570708 0
9.999999999999998 1.52809313608849 0
9.999999999999998 1.211488856311195 0
9.999999999999998 0.9015828065495276 0
9.999999999999998 0.6005122330872152 0
9.999999999999998 0.3018563934051054 0
9.999999999999998 0.1509281967025527 0
9.999999999999998 0.4511843132461604 0
9.999999999999998 0.7510475198183715 0
9.999999999999998 1.056535831430361 0
9.999999999999998 1.369790996199842 0
9.999999999999998 1.684049622829599 0
9.999999999999998 1.991540108798948 0
9.999999999999998 2.296045240486371 0
9.999999999999998 2.605242201982673 0
9.999999999999998 2.918997075751876 0
9.999999999999998 3.232738474276529 0
9.999999999999998 3.541894436878972 0
9.999999999999998 3.847419022844422 0
1 2 0 9
30
31
32
33
34
35
36
37
38
10.09882813709624 0 0
10.29674283192841 0 0
10.49617639450301 0 0
10.69743871910789 0 0
10.89917701943704 0 0
10.19765627419249 0 0
10.39582938966433 0 0
10.5965233993417 0 0
10.79835403887409 0 0
1 3 0 25
39
40
41
42
43
44
45
46
47
48
49
50
51
52
53
54
55
56
57
58
59
60
61
62
63
11 0.1523558463035085 0
11 3.847566927587701 0
11 3.542138553653043 0
11 3.238315279948962 0
11 2.939521491648001 0
11 2.639939334931322 0
11 2.331754199823993 0
11 2.017133218531892 0
11 1.702729632619099 0
11 1.391438935960609 0
11 1.080319558802056 0
11 0.7680331088906525 0
11 0.4583192156084555 0
11 0.3047116926070169 0
11 0.6119267386098941 0
11 0.9241394791714109 0
11 1.2364996384327 0
11 1.546378233488518 0
11 1.85908103174968 0
11 2.175185405314102 0
11 2.488322994333883 0
11 2.791555675528761 0
11 3.087487307767241 0
11 3.389143252130683 0
11 3.695133855175402 0
1 4 0 9
64
65
66
67
68
69
70
71
72
10.8019573140016 4 0
10.60200401957586 4 0
10.39977436071762 4 0
10.19862623971011 4 0
10.9009786570008 4 0
10.70198066678873 4 0
10.50088919014674 4 0
10.29920030021387 4 0
10.09931311985506 4 0
2 1 0 225
73
74
75
76
77
78
79
80
81
82
83
84
85
86
87
88
89
90
91
92
93
94
95
96
97
98
99
100
101
102
103
104
105
106
107
108
109
110
111
112
113
114
115
116
117
118
119
120
121
122
123
124
125
126
127
128
129
130
131
132
133
134
135
136
137
138
139
140
141
142
143
144
145
146
147
148
149
150
151
152
153
154
155
156
157
158
159
160
161
162
163
164
165
166
167
168
169
170
171
172
173
174
175
176
177
178
179
180
181
182
183
184
185
186
187
188
189
190
191
192
193
194
195
196
197
198
199
200
201
202
203
204
205
206
207
208
209
210
211
212
213
214
215
216
217
218
219
220
221
222
223
224
225
226
227
228
229
230
231
232
233
234
235
236
237
238
239
240
241
242
243
244
245
246
247
248
249
250
251
252
253
254
255
256
257
258
259
260
261
262
263
264
265
266
267
268
269
270
271
272
273
274
275
276
277
278
279
280
281
282
283
284
285
286
287
288
289
290
291
292
293
294
295
296
297
10.90049407408772 3.847431735821798 0
10.90023997176287 3.694862081137944 0
10.90011957304038 3.542095034543676 0
10.90006209915084 3.389519639515911 0
10.90003373719864 3.238000348795954 0
10.90001903352502 3.086976120412632 0
10.90001102536606 2.937182839544398 0
10.90000628971236 2.787206350023285 0
10.90000319197783 2.635401164221683 0
10.90000082263834 2.482580412636043 0
10.89999856171019 2.327229850910963 0
10.89999593701125 2.171111454912321 0
10.89999220829615 2.014139240822652 0
10.89998588888486 1.857121895389985 0
10.89997260516554 1.70085319388463 0
10.89997743252411 1.54487259892013 0
10.89997561742476 1.389554121608748 0
10.89996799819186 1.234300741202957 0
10.89995393475334 1.078586154131817 0
10.89993008823391 0.9228778830871577 0
10.8998908476025 0.7673620189013994 0
10.89982873144426 0.6122430980345428 0
10.8997339083734 0.4584245957468493 0
10.89959361939785 0.3050934902174935 0
10.89940224413976 0.1524647484933122 0
10.80087857898976 3.847345745632018 0
10.80042134144751 3.694686485491261 0
10.80021155896817 3.541979324231503 0
10.80011120236971 3.389449997356027 0
10.80006108795941 3.237473825367042 0
10.80003476114043 3.085917374963759 0
10.8000201983602 2.934883099798093 0
10.80001152249464 2.783613950437652 0
10.80000580747185 2.631272410139554 0
10.80000138190935 2.477913070747883 0
10.79999716589895 2.323067119617979 0
10.7999923063809 2.167427615927337 0
10.79998564096204 2.011204691848258 0
10.79997515570497 1.854879758751551 0
10.7999578088152 1.698880335185528 0
10.79996054694209 1.543078092685489 0
10.79995509744331 1.387628841985478 0
10.79994038796046 1.232285492695372 0
10.79991304880219 1.07685190506179 0
10.79986722636724 0.9215394909498087 0
10.79979242229911 0.7665249676543233 0
10.7996732413842 0.6120036101109069 0
10.79948877903312 0.4583149446678559 0
10.79921201539706 0.3051621709392193 0
10.79882189511187 0.1524908049378474 0
10.70099558108467 3.847272972981461 0
10.70049584576425 3.694540928087422 0
10.70025620357525 3.541792972269999 0
10.70013835354348 3.389146193137358 0
10.70007779600035 3.23676626962697 0
10.70004508682276 3.084621840823158 0
10.7000265258826 2.932657663981507 0
10.70001525478281 2.78045384703305 0
10.70000768449447 2.627558542057305 0
10.70000168541272 2.473875768570307 0
10.6999959246632 2.319259601237426 0
10.6999893539559 2.164013080539902 0
10.69998067691303 2.008340330204702 0
10.69996773250278 1.852522924522831 0
10.69994656827387 1.69680515766923 0
10.6999490301563 1.541128167599675 0
10.69994000221053 1.385649712916857 0
10.69991881418085 1.230305204693588 0
10.69988057963646 1.075069061924931 0
10.6998167868988 0.9200808685959545 0
10.69971267278142 0.7654849687102636 0
10.69954584217155 0.6114104595013619 0
10.69928385910488 0.4579715757011867 0
10.69888013618335 0.3050175503085273 0
10.69827669375476 0.1524286627552383 0
10.60090396822248 3.84721193764256 0
10.6004585579123 3.694408822428952 0
10.60024835628315 3.541568482849755 0
10.60014065886876 3.388730882351138 0
10.60008226788969 3.235956950814713 0
10.60004912017954 3.083239146671138 0
10.60002952864588 2.930515139617903 0
10.60001727507619 2.777565916882137 0
10.60000878683396 2.624162946982649 0
10.60000177468578 2.470231610626994 0
10.59999493145172 2.315730223953476 0
10.59998721594799 2.160795744281721 0
10.59997747011895 2.005555921732562 0
10.59996383907322 1.850139227918379 0
10.59994956081602 1.694642307193283 0
10.59994380186545 1.539089359427797 0
10.59993097627417 1.383609426027806 0
10.59990513430132 1.228277478694927 0
10.59985950667879 1.073183783175475 0
10.59978330113476 0.9184630376429903 0
10.5996591252377 0.7642306222220857 0
10.59945906219526 0.6105477642788798 0
10.59914007878295 0.4574171787064988 0
10.59863459136091 0.3047106079851218 0
10.59783269920133 0.1522904746270053 0
10.50053184779283 3.847165849329842 0
10.50032057181151 3.694297406453835 0
10.5001966049302 3.541345873705862 0
10.50012183040021 3.388288989270485 0
10.50007588480781 3.235120636806065 0
10.50004733050469 3.081848331358747 0
10.50002936754882 2.928450226727122 0
10.50001767716011 2.774849758019177 0
10.50000921354087 2.620976695917282 0
10.50000172582168 2.466825521827282 0
10.49999424419499 2.312391878664176 0
10.49998588734433 2.15772105756567 0
10.49997588206598 2.00286093878373 0
10.49996206596419 1.847795705328856 0
10.4999512179529 1.692495397949482 0
10.49994290101718 1.537013946882967 0
10.49992803495105 1.381503856171388 0
10.4999001273135 1.226149636751062 0
10.49985144985086 1.071145577635642 0
10.49977022465672 0.9166447223114251 0
10.49963759822454 0.7627497322215336 0
10.49942275910255 0.6094537927307091 0
10.49907630336492 0.4566811246571758 0
10.49851657462721 0.3042785567145422 0
10.49760747194737 0.1520926996043633 0
10.40009781989278 3.84713945227837 0
10.40014539404622 3.694225115931067 0
10.40012393653271 3.541170153922752 0
10.40009079950808 3.387894239399532 0
10.40006217272013 3.234324391657282 0
10.40004110524757 3.080500303411737 0
10.40002659271681 2.926453981167204 0
10.4000167222456 2.772230489710077 0
10.40000917461017 2.617896170417979 0
10.40000160984455 2.463537526725493 0
10.39999387998724 2.309162414433412 0
10.3999852489804 2.154740579414544 0
10.39997602771979 2.000269864112891 0
10.39996308950913 1.845552079126935 0
10.39995327671817 1.690419199039341 0
10.39994540977444 1.534946476854526 0
10.39993099556742 1.379329481330009 0
10.39990404872247 1.223874818740253 0
10.39985713786677 1.068900017979581 0
10.39977907468469 0.9145769708595056 0
10.39965101140924 0.7610224376106888 0
10.39944269258911 0.6081428153702487 0
10.39910440875867 0.4557890900406762 0
10.3985493271567 0.3037540467809782 0
10.39760718917119 0.1518536935743383 0
10.29978165701811 3.847145194408427 0
10.299999606549 3.694218076182466 0
10.30005621089245 3.541092041826302 0
10.30005787456748 3.387625541851172 0
10.30004531395971 3.233632791718112 0
10.30003211449405 3.079238531240861 0
10.30002187146649 2.924517977832481 0
10.30001476257468 2.769642127833374 0
10.30000906106979 2.614816912972934 0
10.30000148758491 2.460258566770237 0
10.29999386774143 2.305964255882517 0
10.29998491811559 2.151798124006216 0
10.29997801237794 1.997802383661154 0
10.29996672586539 1.843479857143952 0
10.29995626684155 1.688476608593266 0
10.29995159905335 1.532931435458332 0
10.29993998808911 1.3770794040108 0
10.2999169438672 1.221395402843339 0
10.29987655901594 1.066381794143419 0
10.29980935870672 0.912192284939025 0
10.29969897241423 0.7590181186230904 0
10.29951927940518 0.6066137907304315 0
10.29922733248667 0.4547632662719621 0
10.29875092991193 0.3031721852700978 0
10.29797032416463 0.151593337391284 0
10.19962017061203 3.847192065242822 0
10.19992234923003 3.694302903896212 0
10.20001162469691 3.541164301337789 0
10.20003083085425 3.387583236235457 0
10.20002865555971 3.233109797107503 0
10.20002181738914 3.078107665439972 0
10.20001581952635 2.922632919712599 0
10.20001219849758 2.767015882887617 0
10.20000966628953 2.611616235007924 0
10.20000132489302 2.45687217683965 0
10.19999440720617 2.302724804677355 0
10.1999839046323 2.148807211574542 0
10.19998223756478 1.995494687734143 0
10.19997398617003 1.841693799392189 0
10.19995900430389 1.686747380407645 0
10.19996214862586 1.531030373907135 0
10.19995502264773 1.374744427850341 0
10.19993829737492 1.218626418498421 0
10.19990867338051 1.063514281976023 0
10.19985927761499 0.9093837189908734 0
10.19977799727403 0.7566961742353805 0
10.19964630748971 0.6048549718605853 0
10.19943291086041 0.4536286130836837 0
10.19908758169404 0.3025843104662986 0
10.19853171999707 0.1513356109841952 0
10.09975433319592 3.847285118431197 0
10.09993558398096 3.694503244151747 0
10.09999642540342 3.541432782368274 0
10.10001246650461 3.387924825127576 0
10.10001368812074 3.232811500051499 0
10.10001108671016 3.077167171351159 0
10.10000866548455 2.92079331916805 0
10.10000900510362 2.764286667989915 0
10.10000479672961 2.608530016380977 0
10.10000060623425 2.453242981058212 0
10.09999662576236 2.299410738695899 0
10.09999198300249 2.146069265915471 0
10.09999014395231 1.993421133773484 0
10.09998552603936 1.84039823350958 0
10.09997729728727 1.685254691676319 0
10.09997889430663 1.529344632723382 0
10.09997534452776 1.372316600134099 0
10.09996643957677 1.215423348940256 0
10.09995086162388 1.060228333346478 0
10.09992460045406 0.9059706476556522 0
10.09988145465911 0.7540247935683815 0
10.09981159823067 0.6028427561428028 0
10.09969944650909 0.4524208640955688 0
10.09951932967937 0.302084234371484 0
10.09923638057794 0.1511083506985422 0
$EndNodes
$Elements
9 336 1 336
0 1 15 1
1 1 
0 2 15 1
2 2 
0 3 15 1
3 3 
0 4 15 1
4 4 
1 1 1 26
5 1 29 
6 29 5 
7 5 28 
8 28 6 
9 6 27 
10 27 7 
11 7 26 
12 26 8 
13 8 25 
14 25 9 
15 9 24 
16 24 10 
17 10 23 
18 23 11 
19 11 22 
20 22 12 
21 12 21 
22 21 13 
23 13 20 
24 20 14 
25 14 19 
26 19 15 
27 15 18 
28 18 16 
29 16 17 
30 17 2 
1 2 1 10
31 2 30 
32 30 35 
33 35 31 
34 31 36 
35 36 32 
36 32 37 
37 37 33 
38 33 38 
39 38 34 
40 34 3 
1 3 1 26
41 3 39 
42 39 52 
43 52 51 
44 51 53 
45 53 50 
46 50 54 
47 54 49 
48 49 55 
49 55 48 
50 48 56 
51 56 47 
52 47 57 
53 57 46 
54 46 58 
55 58 45 
56 45 59 
57 59 44 
58 44 60 
59 60 43 
60 43 61 
61 61 42 
62 42 62 
63 62 41 
64 41 63 
65 63 40 
66 40 4 
1 4 1 10
67 4 68 
68 68 64 
69 64 69 
70 69 65 
71 65 70 
72 70 66 
73 66 71 
74 71 67 
75 67 72 
76 72 1 
2 1 3 260
77 4 68 73 40 
78 40 73 74 63 
79 63 74 75 41 
80 41 75 76 62 
81 62 76 77 42 
82 42 77 78 61 
83 61 78 79 43 
84 43 79 80 60 
85 60 80 81 44 
86 44 81 82 59 
87 59 82 83 45 
88 45 83 84 58 
89 58 84 85 46 
90 46 85 86 57 
91 57 86 87 47 
92 47 87 88 56 
93 56 88 89 48 
94 48 89 90 55 
95 55 90 91 49 
96 49 91 92 54 
97 54 92 93 50 
98 50 93 94 53 
99 53 94 95 51 
100 51 95 96 52 
101 52 96 97 39 
102 39 97 34 3 
103 68 64 98 73 
104 73 98 99 74 
105 74 99 100 75 
106 75 100 101 76 
107 76 101 102 77 
108 77 102 103 78 
109 78 103 104 79 
110 79 104 105 80 
111 80 105 106 81 
112 81 106 107 82 
113 82 107 108 83 
114 83 108 109 84 
115 84 109 110 85 
116 85 110 111 86 
117 86 111 112 87 
118 87 112 113 88 
119 88 113 114 89 
120 89 114 115 90 
121 90 115 116 91 
122 91 116 117 92 
123 92 117 118 93 
124 93 118 119 94 
125 94 119 120 95 
126 95 120 121 96 
127 96 121 122 97 
128 97 122 38 34 
129 64 69 123 98 
130 98 123 124 99 
131 99 124 125 100 
132 100 125 126 101 
133 101 126 127 102 
134 102 127 128 103 
135 103 128 129 104 
136 104 129 130 105 
137 105 130 131 106 
138 106 131 132 107 
139 107 132 133 108 
140 108 133 134 109 
141 109 134 135 110 
142 110 135 136 111 
143 111 136 137 112 
144 112 137 138 113 
145 113 138 139 114 
146 114 139 140 115 
147 115 140 141 116 
148 116 141 142 117 
149 117 142 143 118 
150 118 143 144 119 
151 119 144 145 120 
152 120 145 146 121 
153 121 146 147 122 
154 122 147 33 38 
155 69 65 148 123 
156 123 148 149 124 
157 124 149 150 125 
158 125 150 151 126 
159 126 151 152 127 
160 127 152 153 128 
161 128 153 154 129 
162 129 154 155 130 
163 130 155 156 131 
164 131 156 157 132 
165 132 157 158 133 
166 133 158 159 134 
167 134 159 160 135 
168 135 160 161 136 
169 136 161 162 137 
170 137 162 163 138 
171 138 163 164 139 
172 139 164 165 140 
173 140 165 166 141 
174 141 166 167 142 
175 142 167 168 143 
176 143 168 169 144 
177 144 169 170 145 
178 145 170 171 146 
179 146 171 172 147 
180 147 172 37 33 
181 65 70 173 148 
182 148 173 174 149 
183 149 174 175 150 
184 150 175 176 151 
185 151 176 177 152 
186 152 177 178 153 
187 153 178 179 154 
188 154 179 180 155 
189 155 180 181 156 
190 156 181 182 157 
191 157 182 183 158 
192 158 183 184 159 
193 159 184 185 160 
194 160 185 186 161 
195 161 186 187 162 
196 162 187 188 163 
197 163 188 189 164 
198 164 189 190 165 
199 165 190 191 166 
200 166 191 192 167 
201 167 192 193 168 
202 168 193 194 169 
203 169 194 195 170 
204 170 195 196 171 
205 171 196 197 172 
206 172 197 32 37 
207 70 66 198 173 
208 173 198 199 174 
209 174 199 200 175 
210 175 200 201 176 
211 176 201 202 177 
212 177 202 203 178 
213 178 203 204 179 
214 179 204 205 180 
215 180 205 206 181 
216 181 206 207 182 
217 182 207 208 183 
218 183 208 209 184 
219 184 209 210 185 
220 185 210 211 186 
221 186 211 212 187 
222 187 212 213 188 
223 188 213 214 189 
224 189 214 215 190 
225 190 215 216 191 
226 191 216 217 192 
227 192 217 218 193 
228 193 218 219 194 
229 194 219 220 195 
230 195 220 221 196 
231 196 221 222 197 
232 197 222 36 32 
233 66 71 223 198 
234 198 223 224 199 
235 199 224 225 200 
236 200 225 226 201 
237 201 226 227 202 
238 202 227 228 203 
239 203 228 229 204 
240 204 229 230 205 
241 205 230 231 206 
242 206 231 232 207 
243 207 232 233 208 
244 208 233 234 209 
245 209 234 235 210 
246 210 235 236 211 
247 211 236 237 212 
248 212 237 238 213 
249 213 238 239 214 
250 214 239 240 215 
251 215 240 241 216 
252 216 241 242 217 
253 217 242 243 218 
254 218 243 244 219 
255 219 244 245 220 
256 220 245 246 221 
257 221 246 247 222 
258 222 247 31 36 
259 71 67 248 223 
260 223 248 249 224 
261 224 249 250 225 
262 225 250 251 226 
263 226 251 252 227 
264 227 252 253 228 
265 228 253 254 229 
266 229 254 255 230 
267 230 255 256 231 
268 231 256 257 232 
269 232 257 258 233 
270 233 258 259 234 
271 234 259 260 235 
272 235 260 261 236 
273 236 261 262 237 
274 237 262 263 238 
275 238 263 264 239 
276 239 264 265 240 
277 240 265 266 241 
278 241 266 267 242 
279 242 267 268 243 
280 243 268 269 244 
281 244 269 270 245 
282 245 270 271 246 
283 246 271 272 247 
284 247 272 35 31 
285 67 72 273 248 
286 248 273 274 249 
287 249 274 275 250 
288 250 275 276 251 
289 251 276 277 252 
290 252 277 278 253 
291 253 278 279 254 
292 254 279 280 255 
293 255 280 281 256 
294 256 281 282 257 
295 257 282 283 258 
296 258 283 284 259 
297 259 284 285 260 
298 260 285 286 261 
299 261 286 287 262 
300 262 287 288 263 
301 263 288 289 264 
302 264 289 290 265 
303 265 290 291 266 
304 266 291 292 267 
305 267 292 293 268 
306 268 293 294 269 
307 269 294 295 270 
308 270 295 296 271 
309 271 296 297 272 
310 272 297 30 35 
311 72 1 29 273 
312 273 29 5 274 
313 274 5 28 275 
314 275 28 6 276 
315 276 6 27 277 
316 277 27 7 278 
317 278 7 26 279 
318 279 26 8 280 
319 280 8 25 281 
320 281 25 9 282 
321 282 9 24 283 
322 283 24 10 284 
323 284 10 23 285 
324 285 23 11 286 
325 286 11 22 287 
326 287 22 12 288 
327 288 12 21 289 
328 289 21 13 290 
329 290 13 20 291 
330 291 20 14 292 
331 292 14 19 293 
332 293 19 15 294 
333 294 15 18 295 
334 295 18 16 296 
335 296 16 17 297 
336 297 17 2 30 
$EndElements
